<?xml version="1.0" standalone="no"?>
<!DOCTYPE svg PUBLIC "-//W3C//DTD SVG 20010904//EN"
 "http://www.w3.org/TR/2001/REC-SVG-20010904/DTD/svg10.dtd">
<svg version="1.0" xmlns="http://www.w3.org/2000/svg"
 width="3023.000000pt" height="600.000000pt" viewBox="0 0 3023.000000 600.000000"
 preserveAspectRatio="xMidYMid meet">
<metadata>
Created by potrace 1.16, written by Peter Selinger 2001-2019
</metadata>
<g transform="translate(0.000000,600.000000) scale(0.100000,-0.100000)"
fill="#000000" stroke="none">
<path d="M0 3000 l0 -3000 1386 0 1386 0 -5 23 c-3 12 -8 42 -11 67 -3 25 -14
113 -25 195 -36 269 -42 327 -37 333 3 3 1 11 -5 18 -5 6 -12 44 -14 83 -2 38
-6 75 -10 81 -3 5 -8 32 -11 58 -3 40 -21 175 -28 222 -2 8 -6 44 -10 80 -14
128 -28 205 -42 221 -10 11 -11 24 -5 45 9 31 4 57 -9 49 -9 -5 -4 51 6 67 5
7 2 8 -6 3 -10 -6 -12 -3 -7 14 3 14 1 21 -6 18 -14 -4 -30 11 -40 37 -5 14
-4 17 8 12 18 -7 18 -5 2 26 -10 21 -15 23 -25 11 -7 -7 -9 -13 -4 -13 5 0 7
-21 4 -48 -5 -44 -4 -46 13 -32 17 14 17 14 3 -15 -10 -21 -12 -43 -7 -75 4
-25 7 -61 7 -80 0 -37 -24 98 -33 185 -2 28 -14 120 -25 205 -48 367 -80 614
-120 945 -6 50 -16 119 -21 155 -5 36 -34 256 -64 490 -56 435 -64 495 -90
685 -33 239 -77 586 -180 1425 -31 256 -59 475 -61 488 -4 20 -10 22 -72 22
-59 0 -68 -2 -68 -17 1 -20 -11 -394 -21 -663 -4 -96 -7 -185 -7 -197 -1 -17
-5 -21 -19 -17 -10 3 -25 0 -33 -7 -12 -10 -13 -9 -8 5 4 10 1 16 -9 16 -8 0
-18 6 -20 13 -3 6 -6 -4 -6 -23 -1 -19 -4 -52 -8 -73 -7 -46 -23 -31 -23 23 0
20 -6 60 -14 90 -19 72 -24 110 -31 200 -14 201 -17 220 -27 214 -8 -5 -9 4
-4 27 9 48 -3 150 -18 142 -8 -5 -8 -3 0 8 6 8 12 59 12 118 1 57 4 112 7 122
6 19 -15 19 -769 19 l-776 0 0 -3000z"/>
<path d="M4040 5990 c-13 -9 -13 -10 1 -10 11 0 19 -17 27 -61 6 -34 9 -65 7
-69 -2 -3 -23 -12 -47 -20 -24 -7 -104 -33 -178 -57 -74 -25 -146 -46 -160
-48 -24 -4 -70 -18 -115 -36 -11 -4 -54 -17 -95 -29 -88 -24 -90 -25 -111 -34
-9 -4 -33 -8 -52 -9 -19 -1 -33 -5 -30 -9 2 -5 -7 -8 -21 -8 -14 0 -26 -3 -26
-8 0 -4 -42 -18 -92 -31 -51 -14 -100 -28 -108 -33 -8 -4 -55 -20 -105 -34
-49 -14 -153 -44 -230 -66 -77 -22 -147 -44 -155 -50 -12 -7 -11 -8 5 -5 40
10 722 211 1000 296 33 10 94 29 135 41 113 33 395 122 398 125 6 5 -20 165
-27 165 -3 0 -13 -5 -21 -10z"/>
<path d="M13866 5258 c-3 -409 -9 -1150 -12 -1648 -4 -498 -9 -1059 -13 -1248
l-6 -342 37 0 c47 0 70 9 61 24 -8 12 -6 1685 2 2406 3 234 8 678 11 988 l6
562 -40 0 -40 0 -6 -742z"/>
<path d="M14029 5838 c-1 -90 -2 -178 -3 -195 0 -18 2 -33 5 -33 4 0 11 -21
17 -47 l10 -48 1 51 c0 28 5 97 10 155 6 57 12 143 15 192 l5 87 -29 0 -30 0
-1 -162z"/>
<path d="M14107 5963 c-2 -21 -5 -143 -6 -271 -1 -128 -6 -257 -11 -285 -10
-59 -6 -1113 4 -1197 5 -36 4 -50 -2 -41 -21 29 -21 20 7 -384 10 -153 36
-312 52 -329 5 -6 9 75 10 205 0 242 11 470 33 704 8 88 20 241 26 340 6 99
17 259 26 355 21 250 30 409 23 404 -16 -10 -19 85 -9 288 5 119 13 223 16
232 5 14 -5 16 -79 16 l-85 0 -5 -37z"/>
<path d="M14295 5975 c-3 -14 -7 -37 -10 -51 -3 -14 -1 -32 5 -39 8 -10 8 -20
-1 -37 -11 -21 -15 -61 -23 -278 -3 -70 1 -93 15 -84 5 3 9 30 9 60 0 30 7
112 15 182 21 184 24 272 8 272 -7 0 -15 -11 -18 -25z"/>
<path d="M14775 5979 c44 -10 91 -19 105 -20 14 -1 48 -5 75 -10 28 -5 61 -11
75 -13 14 -3 38 -5 54 -5 21 -1 27 -5 22 -16 -3 -8 -9 -22 -12 -30 -3 -8 -2
-15 3 -15 5 0 14 14 20 30 11 30 36 40 48 20 4 -6 2 -16 -3 -23 -16 -19 -27
-127 -13 -127 17 0 13 -17 -8 -37 -13 -12 -18 -30 -17 -52 2 -35 25 -57 25
-24 1 43 7 67 19 71 16 5 11 -38 -10 -104 -10 -29 -19 -40 -36 -42 -19 -3 -23
-8 -19 -25 3 -12 2 -41 -2 -64 -7 -35 -5 -45 10 -59 11 -10 19 -23 19 -30 0
-8 11 -16 24 -20 24 -6 44 -54 23 -54 -5 0 -7 -13 -4 -29 4 -19 2 -31 -6 -34
-9 -3 -13 10 -15 44 -1 32 2 49 10 49 6 0 9 2 6 5 -3 3 -13 3 -22 -1 -12 -4
-16 -18 -16 -48 0 -104 -1 -116 -10 -116 -6 0 -10 -13 -10 -29 0 -17 -4 -33
-10 -36 -5 -3 -10 -16 -10 -28 0 -13 -4 -17 -9 -12 -6 6 -6 29 0 60 5 28 11
79 13 115 2 36 7 80 11 98 5 21 4 32 -3 32 -13 0 -20 -35 -27 -139 -3 -41 -10
-80 -16 -87 -6 -7 -9 -19 -7 -26 4 -12 -14 -38 -26 -38 -3 0 -6 7 -6 16 0 14
-3 14 -16 3 -13 -10 -17 -10 -25 2 -5 8 -9 10 -9 5 0 -5 -6 -3 -14 3 -11 9
-15 9 -18 -1 -4 -10 -8 -10 -21 1 -9 7 -23 11 -32 8 -8 -4 -17 -1 -21 4 -3 6
-16 8 -27 5 -12 -3 -26 -1 -33 5 -7 6 -30 12 -51 14 -21 2 -59 8 -85 14 -27 6
-51 10 -55 9 -9 -2 -114 11 -157 19 -28 5 -28 5 -21 -33 16 -85 8 -296 -17
-430 -6 -34 -9 -68 -6 -76 3 -8 26 -20 49 -27 68 -20 69 -21 69 -142 0 -60 7
-182 15 -270 12 -124 13 -164 4 -170 -7 -4 -9 -19 -5 -40 18 -97 18 -109 7
-109 -7 0 -9 -5 -4 -12 4 -7 8 -78 9 -158 3 -277 32 -605 53 -620 14 -9 22
-58 10 -62 -15 -5 -2 -128 13 -128 7 0 8 21 5 58 -4 37 -3 48 2 32 13 -37 13
-96 -1 -124 -11 -25 -12 -25 -29 27 -10 28 -18 60 -19 70 0 9 -5 17 -11 17
-12 0 -6 -80 9 -122 5 -13 10 -43 11 -67 1 -24 6 -52 11 -62 14 -26 21 -89 10
-89 -14 0 -12 -68 2 -72 11 -4 14 -91 11 -293 -1 -33 -1 -73 0 -90 0 -16 -3
-62 -7 -102 l-8 -71 73 -6 c102 -9 305 6 302 21 -2 7 -8 139 -13 294 -6 156
-15 321 -20 368 -5 47 -18 194 -30 326 -11 132 -25 269 -31 305 -19 118 -51
432 -44 438 2 2 35 -1 72 -8 37 -7 142 -14 233 -15 140 -1 175 -5 231 -24 65
-21 133 -62 135 -81 1 -6 2 -28 3 -50 1 -38 3 -41 61 -70 70 -36 79 -36 130
-10 l40 20 0 70 c0 52 -7 87 -25 132 -23 57 -24 67 -14 119 6 33 10 122 8 212
-2 85 -2 153 0 151 8 -7 12 -44 18 -156 4 -79 9 -108 18 -108 7 0 15 6 18 13
2 6 4 0 4 -16 0 -15 -3 -30 -8 -33 -5 -3 -9 2 -9 10 0 9 -4 16 -10 16 -13 0
-13 -17 0 -25 7 -5 8 -11 1 -19 -5 -6 -6 -18 -2 -25 6 -9 10 -6 14 11 6 22 7
22 21 3 10 -14 11 -24 4 -32 -7 -9 -7 -17 2 -28 17 -21 33 -19 25 4 -6 20 13
33 51 36 14 0 20 -4 17 -12 -3 -8 -13 -11 -23 -8 -10 3 -21 1 -25 -5 -3 -5 2
-10 13 -10 12 0 22 -9 26 -22 6 -25 -8 -46 -18 -29 -9 13 -26 15 -26 2 0 -13
43 -22 54 -11 17 17 28 11 21 -12 -5 -18 -4 -20 4 -8 12 18 71 20 71 3 0 -7
-9 -13 -21 -13 -12 0 -17 -4 -13 -11 4 -7 21 -9 40 -6 39 7 53 -7 25 -25 -19
-11 -18 -12 6 -25 27 -14 48 -9 37 9 -4 6 0 14 7 19 23 14 32 10 18 -8 -11
-13 -11 -17 -1 -20 14 -5 16 -29 2 -38 -5 -3 -19 -1 -30 5 -12 6 -20 7 -20 1
0 -5 6 -12 13 -14 6 -3 -3 -6 -20 -6 -18 -1 -33 -6 -33 -12 0 -6 11 -8 28 -4
20 4 35 0 52 -15 12 -11 29 -20 37 -20 7 0 13 -5 13 -11 0 -7 -10 -9 -24 -5
-14 3 -28 1 -32 -6 -5 -7 -3 -8 6 -3 9 5 10 2 5 -14 -4 -12 -2 -21 4 -21 6 0
11 7 11 15 0 8 5 15 10 15 6 0 10 -7 10 -15 0 -8 9 -15 20 -15 24 0 26 -13 4
-35 -9 -9 -15 -18 -13 -20 8 -7 37 21 40 39 7 33 26 29 31 -6 4 -23 0 -36 -11
-45 -14 -10 -14 -14 7 -33 13 -12 26 -19 30 -15 4 4 1 10 -5 12 -7 3 -13 12
-13 21 1 13 6 10 21 -10 11 -16 25 -28 31 -28 6 0 17 -8 24 -17 15 -22 27 -12
27 23 0 18 2 22 8 13 6 -10 9 -10 9 -2 0 7 7 10 16 6 11 -4 12 -8 4 -13 -9 -6
-9 -9 1 -13 8 -4 6 -5 -6 -4 -10 1 -21 -5 -22 -13 -2 -10 5 -15 22 -16 27 -2
29 5 40 120 3 33 10 67 15 77 6 9 9 38 7 63 -1 25 1 46 6 46 5 0 7 -24 4 -52
-2 -29 -7 -87 -11 -128 -3 -41 -9 -86 -12 -100 -12 -54 -34 -197 -34 -227 0
-38 21 -53 74 -53 19 0 38 -6 43 -12 4 -7 8 -63 8 -125 0 -103 2 -114 22 -135
15 -14 40 -24 70 -28 47 -5 202 5 211 14 2 3 -4 38 -14 78 -18 75 -35 273 -22
260 4 -4 11 -47 14 -95 4 -48 11 -87 15 -87 5 0 7 16 4 35 -2 19 0 35 4 35 13
0 20 -25 14 -49 -6 -23 6 -28 25 -9 9 9 12 8 12 -5 0 -15 -11 -21 -32 -19 -10
2 7 -51 19 -55 6 -2 18 12 27 31 17 37 33 52 43 42 4 -3 -2 -15 -12 -26 -17
-19 -17 -21 0 -40 17 -19 17 -22 3 -37 -15 -14 -15 -18 -1 -39 18 -29 3 -32
-21 -5 -17 18 -17 22 -2 43 19 26 20 38 5 38 -28 0 -51 -51 -29 -65 5 -3 7
-12 4 -20 -7 -16 23 -34 66 -39 27 -3 30 0 30 23 0 17 -3 22 -9 13 -6 -10 -10
-10 -20 2 -9 10 -9 16 -1 21 7 4 9 22 5 49 -5 38 -5 39 8 17 8 -12 12 -35 9
-50 -3 -18 -1 -23 6 -16 6 6 11 30 12 55 3 62 2 64 -15 50 -10 -8 -15 -9 -15
-2 0 6 9 16 20 22 17 9 20 20 19 73 -1 34 -6 70 -11 80 -5 9 -5 17 -1 17 12 0
14 48 3 55 -6 3 -10 14 -9 23 0 11 2 12 6 4 9 -23 22 -1 16 28 -3 19 -1 30 6
30 12 0 13 -15 11 -320 0 -201 -5 -255 -23 -278 -8 -10 -7 -16 4 -23 10 -7 4
-8 -20 -4 l-33 7 21 -21 c20 -20 23 -20 46 -5 27 17 31 29 15 39 -12 7 -14 45
-2 45 4 0 14 -6 20 -12 20 -20 31 8 26 61 -5 47 -11 151 -18 274 -2 37 -6 70
-9 73 -3 3 -1 18 3 34 4 16 5 31 2 35 -3 3 -7 45 -9 93 -1 48 -6 123 -11 167
-6 44 -11 118 -12 165 0 47 -6 116 -11 155 -8 59 -7 72 6 81 16 12 21 29 6 20
-5 -3 -12 6 -16 21 -4 16 -2 29 6 34 10 6 9 14 -1 38 -14 35 -8 50 14 32 11
-9 15 -7 19 9 6 24 -12 38 -24 19 -7 -11 -9 -10 -9 4 0 9 5 17 12 17 9 0 9 3
0 12 -9 9 -7 14 5 23 14 11 14 14 -2 39 -17 25 -17 28 -2 44 16 15 17 15 17
-1 0 -9 5 -17 10 -17 6 0 10 12 10 26 0 20 -4 25 -22 22 -19 -2 -24 2 -26 26
-3 25 -1 28 11 18 15 -13 27 -6 27 15 0 7 -11 13 -25 13 -21 0 -25 5 -25 30 0
21 4 28 14 24 7 -3 16 2 20 12 5 13 2 15 -13 11 -14 -3 -21 2 -25 17 -9 32 -7
39 8 33 21 -8 29 23 11 43 -19 21 -19 36 0 43 10 5 16 -4 20 -31 10 -59 14
-67 27 -54 9 9 8 18 -1 36 -7 13 -12 42 -9 65 2 26 -1 41 -8 41 -7 0 -9 10 -6
25 2 14 -1 31 -7 39 -7 8 -9 25 -5 40 5 21 1 32 -20 51 l-27 25 25 0 c27 0 40
-13 43 -45 5 -43 15 -91 23 -110 8 -18 16 -69 23 -137 2 -16 -3 -30 -10 -32
-7 -3 -13 -10 -13 -16 0 -6 13 -1 30 11 16 12 27 26 24 31 -3 4 3 8 14 8 25 0
47 -47 31 -66 -10 -12 -8 -19 9 -34 20 -19 21 -19 27 12 4 17 18 50 30 72 19
34 20 43 9 53 -12 12 -18 4 -29 -37 -6 -20 -19 -40 -26 -40 -16 0 -9 27 21 85
34 64 37 85 14 85 -17 0 -16 41 1 47 18 5 45 -50 34 -69 -6 -10 -6 -19 0 -23
6 -3 7 -13 4 -22 -4 -10 -2 -14 5 -9 6 3 13 2 16 -3 4 -5 2 -12 -4 -16 -13 -8
-13 -42 1 -50 6 -4 17 2 25 14 18 25 36 28 27 4 -10 -28 -36 -43 -60 -38 -22
5 -50 -25 -36 -39 12 -12 33 -6 33 10 0 22 26 1 33 -27 4 -15 1 -19 -11 -14
-26 8 -45 -28 -27 -51 21 -27 18 -40 -7 -41 -13 -1 -33 -8 -45 -14 -35 -19
-37 -5 -4 31 16 18 27 39 24 46 -3 8 0 21 7 29 7 8 8 15 2 15 -13 0 -33 -25
-26 -33 4 -3 -6 -9 -21 -13 -19 -5 -23 -10 -16 -17 17 -17 13 -35 -8 -42 -25
-8 -38 -45 -20 -56 9 -6 18 -3 26 7 8 11 20 14 37 10 19 -5 26 -2 26 9 0 8 7
15 15 15 8 0 15 -2 15 -5 0 -14 -31 -64 -42 -67 -16 -6 -2 -38 17 -38 8 0 15
5 15 10 0 6 7 10 15 10 22 0 18 -11 -16 -45 -24 -24 -33 -27 -47 -18 -18 11
-20 28 -9 80 6 30 5 32 -12 21 -34 -21 -44 -48 -27 -67 22 -24 20 -51 -3 -51
-11 0 -21 4 -23 9 -1 5 -14 1 -27 -10 -18 -14 -19 -19 -7 -19 23 0 20 -23 -5
-38 -12 -8 -19 -21 -17 -34 4 -31 28 -35 28 -6 0 13 9 34 19 45 14 15 17 23 8
32 -8 8 -4 11 16 11 29 0 35 -18 15 -38 -9 -9 -8 -12 5 -12 9 0 23 14 32 30
18 34 18 34 44 18 15 -9 22 -8 35 5 9 8 13 22 10 30 -3 8 0 18 5 22 6 3 10 9
8 13 -2 4 4 15 15 24 17 17 18 17 18 -1 0 -10 -6 -24 -14 -30 -7 -6 -16 -30
-20 -52 -5 -30 -10 -39 -21 -35 -9 3 -15 0 -15 -8 0 -8 -6 -17 -12 -20 -9 -3
-7 -9 6 -20 18 -14 21 -14 37 0 11 10 25 13 39 9 12 -4 27 -1 36 6 12 10 13 9
8 -5 -3 -9 -15 -16 -26 -16 -24 0 -60 -19 -71 -37 -5 -8 -16 -11 -26 -8 -9 3
-26 -2 -37 -10 -19 -15 -19 -15 0 -30 10 -8 24 -11 29 -8 8 5 7 8 -1 11 -15 5
-6 22 11 22 7 0 18 -4 26 -9 11 -7 6 -15 -20 -40 -35 -31 -73 -45 -50 -17 7 8
8 17 4 19 -23 14 -62 -48 -43 -67 8 -8 15 -6 26 8 14 19 14 19 39 -4 23 -22
24 -26 10 -36 -14 -10 -13 -15 11 -43 23 -28 24 -32 9 -38 -25 -9 -50 11 -48
37 2 12 -2 31 -8 43 l-12 21 -9 -23 c-7 -20 -13 -22 -39 -17 -27 5 -30 3 -27
-16 4 -25 28 -37 28 -14 0 24 28 19 46 -9 13 -20 14 -28 4 -40 -10 -13 -8 -19
15 -37 25 -20 26 -22 10 -34 -18 -14 -12 -34 10 -34 8 0 18 7 23 15 10 20 38
10 45 -15 5 -20 -18 -36 -28 -20 -9 15 -25 12 -25 -4 0 -21 -29 -28 -46 -12
-8 8 -14 26 -14 39 0 14 -6 30 -14 36 -11 9 -15 7 -20 -11 -3 -15 0 -27 9 -34
8 -6 15 -25 15 -42 0 -17 6 -32 15 -36 9 -3 15 0 15 10 0 12 8 13 35 8 24 -4
35 -2 35 6 0 6 10 10 24 8 13 -1 30 3 39 10 9 8 21 10 28 6 14 -8 -26 -33 -53
-34 -10 0 -18 -4 -18 -9 0 -5 9 -7 20 -4 12 3 20 0 20 -7 0 -8 -9 -11 -27 -7
-33 6 -75 -26 -47 -37 9 -3 23 -1 30 5 8 6 21 9 29 5 12 -4 7 -13 -22 -40 -21
-19 -41 -32 -46 -29 -4 3 0 11 10 18 10 7 15 16 11 20 -10 10 -48 -14 -48 -30
0 -7 -8 -15 -17 -17 -15 -3 -14 -6 7 -17 17 -10 25 -11 28 -2 6 18 36 13 50
-9 10 -17 10 -21 -2 -26 -8 -3 -20 -4 -27 -3 -8 1 -22 -1 -32 -6 -13 -5 -15
-11 -7 -20 8 -9 2 -20 -21 -39 -25 -22 -29 -30 -19 -39 10 -9 13 -9 17 0 7 20
83 96 89 90 3 -3 -6 -18 -20 -34 -37 -39 -34 -55 7 -48 24 5 37 2 47 -10 13
-15 10 -16 -31 -10 -40 6 -49 4 -78 -20 -31 -26 -31 -28 -14 -47 14 -15 15
-23 5 -38 -9 -14 -8 -20 1 -23 8 -3 5 -10 -8 -21 -11 -8 -15 -16 -8 -16 6 0
26 14 43 31 17 17 33 29 36 26 4 -3 -10 -22 -29 -41 -33 -33 -34 -36 -15 -42
11 -3 25 -1 31 5 6 6 21 11 33 11 12 0 27 7 34 15 15 18 31 10 23 -10 -3 -8
-14 -15 -25 -15 -12 0 -18 -6 -16 -16 2 -10 -3 -19 -11 -22 -10 -3 -12 0 -7
13 5 13 2 16 -10 11 -8 -3 -19 -6 -24 -6 -4 0 -7 -8 -6 -17 0 -12 -7 -19 -21
-21 -13 -2 -23 2 -23 9 0 9 -4 8 -15 -1 -18 -15 -20 -36 -4 -45 17 -11 25 5 9
16 -11 8 -2 9 33 6 26 -3 47 -1 47 4 0 5 11 9 25 9 23 0 23 -1 -12 -35 -35
-34 -36 -36 -17 -50 18 -13 18 -14 1 -15 -11 0 -15 -5 -11 -11 4 -8 9 -8 17 0
6 6 15 11 19 11 13 0 9 -17 -8 -34 -19 -19 -9 -40 17 -33 11 3 19 2 19 -3 0
-10 -48 -22 -60 -15 -6 4 -10 1 -10 -4 0 -6 -7 -11 -16 -11 -13 0 -14 -3 -5
-13 8 -11 5 -19 -15 -36 -13 -12 -22 -26 -19 -31 11 -17 25 -11 35 15 5 14 15
25 21 25 6 0 9 6 6 14 -4 9 3 16 20 21 42 10 47 -10 8 -31 -19 -10 -35 -22
-35 -26 0 -12 48 -10 55 2 3 6 13 10 22 10 14 0 14 -2 -1 -19 -9 -10 -25 -17
-34 -15 -24 6 -83 -32 -76 -49 3 -8 -2 -17 -10 -20 -9 -4 -16 -11 -16 -16 0
-5 11 -4 25 2 14 7 23 17 21 24 -4 10 23 23 52 23 23 0 12 -18 -18 -29 -16 -5
-30 -15 -30 -20 0 -14 16 -14 40 -1 12 6 21 7 25 1 3 -6 -4 -15 -16 -22 -17
-9 -19 -13 -8 -20 22 -14 -6 -27 -71 -34 -30 -3 -76 -8 -102 -11 -43 -4 -48
-3 -48 16 0 11 -4 20 -10 20 -14 0 -13 -13 3 -32 15 -21 174 -30 170 -10 -2 7
7 12 20 12 29 0 112 31 237 88 38 18 96 58 120 83 8 8 35 33 59 55 l44 39 -7
-65 c-4 -36 -12 -82 -18 -103 -15 -48 0 -82 44 -100 49 -20 155 -40 216 -41
l54 -1 -7 -68 c-3 -37 -8 -77 -10 -88 -4 -19 -22 -217 -28 -299 -1 -19 -7 -34
-12 -33 -6 1 -53 4 -105 7 -52 3 -108 8 -125 11 -16 3 -59 7 -95 10 -36 2 -65
4 -65 5 0 0 -40 3 -89 6 -49 3 -93 7 -98 10 -5 3 -39 8 -76 10 -37 2 -94 6
-127 8 -313 22 -829 28 -1280 13 -137 -5 -344 -9 -460 -9 l-210 -1 165 -8 c91
-5 244 -6 340 -2 549 19 1385 5 1625 -28 259 -34 558 -51 1008 -56 260 -3 467
-1 467 3 0 5 -127 9 -283 9 l-282 0 -3 133 c-1 78 1 132 7 132 5 0 16 3 25 6
12 4 16 0 16 -15 0 -12 5 -21 10 -21 6 0 10 8 8 17 -3 15 13 20 108 34 61 9
134 22 162 29 59 14 69 31 58 106 -3 24 -3 44 0 44 3 0 17 -9 31 -20 57 -45
260 -15 322 47 53 54 96 90 146 123 51 34 239 195 287 246 20 22 30 46 38 99
6 39 17 90 24 115 10 33 11 61 4 105 -5 33 -8 90 -8 126 0 60 -2 67 -26 79
-22 12 -27 12 -35 0 -8 -12 -9 -11 -6 5 2 11 9 18 18 16 8 -2 21 -5 29 -8 13
-3 14 7 12 66 -4 68 -4 70 -29 68 -25 -2 -33 -10 -50 -52 -5 -14 -9 -4 -11 38
l-3 57 -39 0 c-22 0 -40 -4 -40 -9 0 -5 -8 -7 -18 -4 -10 2 -24 -2 -30 -10
-16 -18 3 -36 41 -39 15 -1 23 -6 19 -10 -4 -4 -22 -4 -40 1 -35 10 -45 3 -36
-26 5 -15 4 -15 -5 -3 -6 8 -11 23 -11 33 0 21 -20 22 -46 2 -18 -14 -18 -14
4 -15 14 0 21 -4 16 -11 -3 -6 -1 -15 7 -19 10 -7 10 -11 -1 -25 -12 -14 -12
-18 0 -25 11 -7 9 -13 -11 -28 -13 -11 -21 -24 -17 -28 5 -4 16 0 26 9 22 20
62 22 84 5 16 -13 30 -108 16 -108 -3 0 -16 -16 -29 -36 -22 -36 -22 -38 -6
-81 18 -49 13 -73 -25 -113 -36 -37 -41 -58 -15 -53 17 3 22 -1 23 -19 0 -13
3 -37 8 -54 6 -28 4 -32 -22 -43 -17 -7 -52 -36 -78 -64 -27 -29 -52 -51 -57
-49 -5 1 -6 -2 -2 -8 9 -14 -26 -111 -42 -117 -7 -3 -13 -12 -13 -21 0 -8 -12
-31 -26 -50 -20 -25 -29 -31 -35 -21 -4 7 -9 11 -11 9 -2 -3 -11 -18 -20 -35
-9 -16 -22 -31 -30 -34 -8 -2 -6 4 5 17 18 20 18 21 -28 41 -26 11 -44 24 -41
29 3 5 2 22 -3 38 l-8 29 -7 -38 c-4 -21 -11 -35 -17 -32 -5 4 -9 0 -9 -7 0
-10 -3 -9 -9 1 -6 9 -6 22 -1 32 5 9 6 19 3 23 -3 3 -1 6 5 6 7 0 12 7 12 15
0 17 -16 21 -22 5 -2 -6 -9 -1 -15 9 -12 18 -10 19 24 14 27 -5 38 -2 45 10 5
10 19 17 31 18 22 0 22 0 -2 10 -14 6 -21 15 -18 24 4 9 -2 17 -16 21 -34 12
-48 13 -42 4 3 -5 1 -11 -5 -15 -5 -3 -10 -1 -10 4 0 6 -11 11 -25 11 -14 0
-25 5 -25 10 0 6 10 8 23 5 25 -6 60 13 40 22 -7 2 -13 11 -13 19 0 7 -9 19
-20 26 -26 16 -26 32 -1 18 27 -14 34 -13 27 5 -3 8 -1 15 4 15 6 0 9 -15 8
-32 -2 -26 1 -33 17 -36 16 -3 17 -1 8 8 -6 7 -9 18 -6 25 8 24 -16 55 -43 55
-20 0 -25 4 -20 16 3 9 6 18 6 20 0 3 10 -4 22 -16 26 -24 38 -26 38 -5 0 8
-9 15 -20 15 -11 0 -20 3 -20 8 0 4 18 7 39 7 22 0 37 3 35 7 -2 3 0 9 6 13
20 13 9 24 -19 19 -21 -4 -30 -2 -35 11 -3 10 -12 15 -21 11 -9 -3 -15 0 -15
10 0 8 6 17 14 20 8 3 11 15 8 31 -3 15 1 28 9 34 8 5 13 21 11 39 -2 17 1 30
8 30 6 0 8 -5 5 -10 -7 -12 2 -12 30 -1 17 7 16 8 -9 15 -26 6 -28 10 -22 44
3 20 12 76 18 125 10 72 15 86 28 82 8 -4 28 -9 44 -12 28 -6 29 -5 22 28 -3
18 -18 45 -31 59 -14 15 -25 38 -25 53 0 24 2 26 19 17 24 -12 58 -13 65 -2 3
5 12 58 21 118 9 59 17 113 18 119 1 5 -10 8 -25 7 -16 -2 -28 1 -28 7 0 6 11
11 25 11 26 0 28 6 39 82 7 53 -2 78 -28 78 -33 0 -36 8 -21 50 7 21 11 49 8
62 -6 22 -5 22 14 6 11 -10 22 -18 25 -18 14 0 12 165 -2 190 -8 16 -6 22 15
36 31 20 32 41 3 47 l-23 4 23 2 c26 1 28 18 7 48 -8 12 -11 24 -6 27 5 3 12
-4 16 -17 6 -20 8 -20 12 -3 3 10 0 23 -6 29 -16 16 -13 68 4 91 11 14 12 23
4 32 -6 7 -9 17 -6 21 2 4 -1 24 -8 43 -11 33 -12 33 -19 13 -7 -23 -36 -32
-36 -12 0 5 5 7 10 4 6 -3 10 1 10 9 0 8 9 20 19 25 16 9 20 6 25 -23 4 -19
14 -40 22 -47 11 -9 14 -22 10 -41 -5 -26 -2 -29 27 -35 l32 -7 -30 -6 c-16
-3 -33 -1 -37 4 -8 13 -13 8 -22 -21 -6 -20 -3 -22 41 -28 26 -4 58 -11 70
-17 12 -6 31 -8 42 -5 12 3 21 1 21 -4 0 -10 45 -7 56 3 3 4 3 12 -1 18 -5 8
-11 6 -19 -6 -9 -12 -15 -14 -20 -6 -4 7 -2 12 4 12 8 0 8 6 0 21 -12 21 -35
21 -35 1 0 -7 -4 -12 -10 -12 -5 0 -10 6 -10 13 0 6 -8 12 -17 12 -9 0 -20 4
-25 9 -4 5 7 7 25 4 59 -8 46 9 -48 62 -8 5 -11 12 -7 17 5 4 11 3 15 -3 4 -6
18 -17 32 -24 14 -7 45 -29 69 -49 27 -22 42 -29 38 -19 -3 10 -1 18 8 20 11
2 10 11 -5 41 -10 21 -20 50 -22 65 -3 28 -22 33 -62 17 -13 -6 -17 -5 -12 3
4 6 22 14 41 18 35 6 49 24 19 24 -8 0 -13 4 -9 10 3 5 12 7 20 3 11 -3 19 5
26 26 6 17 15 31 20 31 14 0 11 28 -3 33 -7 2 -3 2 10 0 33 -5 38 20 12 68
-12 23 -18 45 -13 48 4 3 7 13 7 21 -1 8 -2 25 -3 37 0 12 -9 24 -18 26 -15 4
-16 5 -2 6 9 0 19 9 21 19 9 34 -21 317 -37 342 -3 5 -12 10 -20 10 -8 0 -11
7 -8 20 6 24 -18 28 -37 5 -9 -11 -17 -12 -30 -5 -10 6 -34 10 -52 10 -31 0
-42 -5 -97 -38 -13 -8 -21 -9 -21 -2 0 5 7 10 15 10 8 0 15 4 15 10 0 16 43
34 85 36 56 2 55 2 55 22 0 14 -2 15 -10 2 -8 -13 -10 -13 -10 2 0 9 5 20 10
23 15 9 -7 45 -28 45 -13 0 -12 -4 8 -20 14 -11 20 -20 14 -20 -19 0 -40 34
-43 69 -1 19 -3 37 -5 39 -2 2 -22 4 -45 5 -23 1 -41 5 -41 10 0 5 14 23 32
40 32 32 54 95 39 110 -5 5 -12 0 -15 -11 -9 -26 -40 -40 -32 -14 15 54 23
111 31 214 3 43 10 89 15 103 l9 24 -124 0 c-91 0 -125 -3 -126 -12 -6 -113
-11 -157 -24 -206 -8 -32 -15 -74 -15 -92 0 -53 -68 -327 -104 -420 l-34 -85
19 -80 c25 -103 24 -112 -6 -120 -14 -3 -30 -15 -36 -25 -8 -15 -14 -17 -29
-9 -34 18 -50 12 -50 -20 0 -36 -25 -100 -38 -100 -14 0 -81 25 -135 49 -63
29 -76 52 -74 129 2 55 -1 66 -21 82 -25 21 -29 62 -7 80 8 6 26 31 40 55 24
43 25 50 27 232 0 103 -3 268 -7 366 l-8 177 -307 0 c-237 0 -309 -3 -313 -12
-4 -10 -6 -10 -6 0 -1 9 -26 12 -90 12 -86 0 -89 -1 -95 -24 -3 -14 -2 -36 3
-49 12 -32 8 -80 -8 -85 -7 -2 -8 -8 -3 -15 14 -18 21 -57 11 -57 -15 0 -23
-51 -9 -60 10 -6 9 -13 -3 -31 -12 -17 -14 -26 -5 -36 8 -10 8 -20 -1 -39 -6
-15 -9 -35 -5 -46 3 -10 1 -25 -6 -33 -7 -8 -9 -27 -4 -50 6 -33 4 -37 -12
-33 -19 3 -34 58 -16 58 5 0 7 13 4 30 -3 24 -6 27 -17 16 -8 -7 -16 -32 -19
-55 -2 -23 -9 -47 -14 -54 -7 -8 -6 -18 4 -31 16 -23 10 -36 -17 -36 -11 0
-19 7 -19 17 0 14 -2 14 -21 -3 -13 -12 -18 -26 -15 -40 7 -28 -21 -55 -35
-33 -13 20 -11 49 4 49 6 0 20 12 30 25 17 24 17 25 -3 25 -11 0 -20 7 -20 15
0 18 5 18 31 4 31 -16 50 4 37 39 -10 25 -7 32 36 76 32 33 46 57 45 75 0 24
-1 25 -12 7 -7 -10 -22 -31 -34 -45 -22 -26 -22 -26 -23 -4 0 12 9 27 20 33
11 6 20 17 20 24 0 8 10 20 23 29 17 12 19 18 10 28 -10 10 -17 7 -34 -15 -12
-15 -23 -25 -26 -22 -8 7 41 86 53 86 15 0 24 83 10 93 -7 4 -8 10 -1 15 10 7
35 48 35 57 0 3 -5 4 -11 3 -6 -2 -14 3 -17 11 -3 10 0 12 12 8 17 -7 22 8 6
18 -14 9 -12 42 3 48 6 3 2 6 -10 6 -16 1 -20 -3 -16 -19 3 -11 0 -27 -7 -35
-6 -8 -9 -19 -5 -25 3 -6 -3 -10 -15 -10 -16 0 -20 4 -16 16 4 9 1 23 -5 30
-6 8 -9 21 -5 29 3 9 0 15 -9 15 -15 0 -21 -31 -8 -43 7 -7 6 -51 -1 -114 -3
-25 0 -33 12 -33 15 0 15 -1 0 -16 -23 -24 -48 -11 -48 25 0 16 5 33 10 36 8
5 7 11 0 20 -9 11 -8 23 1 50 11 30 11 38 0 44 -7 5 -10 14 -7 20 12 18 -11
12 -48 -13 -34 -23 -34 -24 -17 -40 17 -16 19 -16 24 4 3 11 12 20 21 20 19 0
21 -11 4 -28 -14 -14 -18 -69 -8 -98 11 -29 -1 -43 -31 -37 -20 4 -25 9 -22
24 3 10 8 19 12 19 12 0 31 39 21 45 -5 3 -29 -15 -53 -40 -25 -25 -50 -45
-57 -45 -7 0 10 23 39 51 46 46 64 80 44 79 -14 -1 -60 -44 -66 -62 -4 -10
-11 -18 -17 -18 -19 0 -10 22 23 55 36 37 40 48 32 76 -5 15 -14 19 -42 16
-49 -3 -66 -31 -35 -57 22 -18 31 -37 11 -25 -6 4 -16 -1 -24 -11 -13 -18 -14
-18 -23 5 -5 16 -5 35 2 53 12 33 1 49 -17 23 -13 -16 -14 -16 -20 -1 -6 14
-34 16 -257 16 -137 0 -250 -3 -250 -7 0 -5 7 -66 16 -138 23 -192 25 -307 9
-387 -8 -38 -15 -84 -15 -103 0 -19 -4 -36 -9 -39 -5 -3 -59 -10 -122 -16 -81
-7 -116 -6 -126 2 -8 6 -33 8 -62 5 l-50 -6 1 30 c1 16 6 32 11 36 16 10 67 5
82 -7 8 -7 19 -9 25 -5 10 6 68 -9 104 -27 12 -6 22 -6 29 1 7 7 2 12 -14 15
-203 47 -224 49 -273 20 -21 -13 -12 -39 11 -30 8 3 11 1 8 -5 -4 -5 -1 -16 5
-24 17 -21 -4 -45 -39 -45 -30 0 -114 28 -91 31 21 2 21 2 58 -6 25 -5 32 -3
32 9 0 9 5 16 12 16 8 0 6 6 -4 17 -16 15 -22 15 -87 -10 -46 -17 -73 -22 -77
-15 -11 18 -14 580 -3 615 6 18 8 42 4 53 -6 19 -14 20 -251 20 l-246 0 7 -72
c3 -40 9 -102 14 -138 7 -55 5 -67 -10 -84 -11 -11 -22 -16 -26 -13 -3 4 -15
0 -24 -9 -17 -16 -19 -16 -25 0 -3 9 -11 16 -16 16 -6 0 -8 -6 -5 -14 7 -18
-14 -26 -29 -12 -10 11 -19 47 -31 121 -2 17 -11 68 -19 114 -8 46 -14 85 -14
87 0 2 -159 4 -352 3 l-353 -1 80 -19z m4170 -371 c-4 -19 -10 -138 -15 -298
l-1 -35 -14 38 c-15 45 -26 57 -32 39 -3 -6 -8 -10 -12 -7 -5 2 -6 -7 -3 -20
2 -15 0 -25 -7 -25 -6 0 -12 6 -12 13 -1 6 -5 -1 -9 -18 -6 -24 -8 -26 -9 -7
0 12 3 30 9 40 18 32 36 147 30 189 -6 37 -4 42 14 45 14 2 21 11 22 27 1 21
18 40 37 41 4 0 5 -10 2 -22z m270 -325 c-4 -18 -2 -23 6 -17 8 5 9 3 5 -5 -5
-7 0 -18 10 -26 21 -15 19 -19 -12 -29 -18 -5 -20 -3 -16 22 4 29 -20 52 -33
32 -4 -6 -2 -10 4 -10 6 0 8 -13 4 -32 -8 -45 -21 -68 -36 -65 -15 3 -11 -72
6 -99 3 -6 4 -14 1 -17 -4 -3 -8 -27 -10 -53 -2 -29 -10 -51 -21 -60 -21 -16
-53 -18 -53 -4 0 6 9 10 20 10 23 0 26 13 6 29 -17 15 -66 4 -83 -18 -10 -14
-11 -13 -7 6 5 16 16 23 48 27 23 4 50 4 59 0 11 -4 17 -1 17 9 0 25 -11 47
-24 47 -6 0 -28 9 -48 20 -35 18 -38 19 -47 2 -5 -9 -13 -14 -16 -10 -4 4 0
15 10 24 17 17 19 17 47 1 16 -9 38 -17 49 -17 17 0 20 7 20 53 -1 115 2 126
44 171 43 46 60 49 50 9z m-1735 -60 c0 -13 -5 -23 -11 -23 -7 0 -9 -11 -5
-31 8 -41 -22 -84 -70 -99 -25 -9 -33 -15 -25 -23 7 -7 -5 -18 -41 -35 -36
-17 -47 -27 -37 -32 13 -9 49 5 49 18 0 4 13 13 28 19 15 7 51 34 79 59 47 42
50 49 40 71 -15 34 6 56 28 27 17 -23 20 -54 4 -54 -7 0 -9 -11 -6 -30 4 -16
2 -32 -4 -35 -5 -4 -7 -21 -3 -41 4 -24 2 -34 -6 -34 -7 0 -10 -6 -7 -14 3 -8
-1 -17 -9 -20 -25 -10 -34 -7 -34 9 0 8 5 15 10 15 6 0 8 11 4 26 -4 16 -2 29
5 33 13 8 5 41 -10 41 -5 0 -9 -7 -9 -15 0 -8 -5 -15 -11 -15 -8 0 -8 -5 1
-15 15 -18 6 -45 -14 -45 -8 0 -19 6 -23 14 -7 13 -11 12 -30 -2 -21 -16 -22
-19 -8 -44 13 -26 12 -28 -5 -28 -10 0 -21 4 -24 8 -3 5 -18 7 -34 4 -16 -2
-33 1 -36 7 -4 6 -13 11 -19 11 -15 -1 -71 -49 -64 -56 6 -6 60 18 69 31 4 5
10 6 14 2 4 -4 2 -13 -4 -19 -23 -23 -12 -27 29 -13 48 17 59 18 59 6 0 -5
-11 -12 -25 -15 -14 -4 -23 -11 -20 -16 3 -6 1 -10 -5 -10 -6 0 -8 -4 -5 -10
3 -5 15 -10 26 -10 11 0 17 5 14 10 -4 6 4 19 17 30 25 21 58 26 58 10 0 -5
-7 -10 -15 -10 -8 0 -19 -9 -25 -20 -9 -16 -8 -20 5 -20 9 0 14 3 12 8 -3 4
13 18 34 32 21 13 39 30 39 37 0 7 9 13 21 13 12 0 23 8 26 20 4 13 14 20 32
21 l26 0 -22 16 c-29 19 -31 53 -4 53 28 0 37 20 12 27 -25 6 -27 18 -6 27 12
4 14 14 10 40 -7 36 6 54 23 33 12 -15 27 -65 17 -55 -5 4 -14 3 -22 -4 -11
-9 -11 -14 3 -29 13 -15 14 -22 5 -33 -7 -8 -9 -25 -5 -40 3 -15 1 -32 -5 -40
-9 -11 -9 -19 1 -35 19 -31 -3 -49 -33 -27 -26 18 -49 21 -49 6 0 -5 11 -10
24 -10 13 0 29 -7 36 -15 7 -9 22 -14 34 -13 11 2 23 -1 26 -7 3 -5 -5 -11
-18 -13 -19 -3 -21 -6 -11 -18 8 -10 8 -14 0 -14 -6 0 -10 -5 -8 -12 2 -14
-26 -13 -141 3 -40 6 -92 12 -115 14 -165 11 -235 19 -257 28 -14 5 -38 11
-55 13 -16 2 -43 7 -60 12 -27 8 -30 13 -27 43 1 18 9 43 17 55 8 12 17 45 21
74 4 28 13 58 21 66 8 7 13 24 11 35 -2 12 3 24 10 26 13 5 18 -38 5 -50 -3
-4 -8 -19 -9 -33 -3 -24 -2 -25 10 -9 15 21 43 15 53 -11 7 -18 -13 -35 -34
-27 -7 3 -13 1 -13 -5 0 -5 7 -12 15 -16 18 -7 20 -37 3 -54 -10 -10 -10 -15
2 -22 23 -14 32 0 25 36 -5 27 -3 34 10 34 8 0 15 6 15 13 0 6 17 20 37 30 35
18 37 18 57 -2 16 -16 18 -23 8 -33 -9 -9 -17 -9 -36 2 -21 11 -27 10 -40 -3
-14 -13 -14 -16 -1 -27 20 -17 19 -27 -5 -35 -11 -3 -20 -12 -20 -19 0 -6 -20
-17 -45 -24 -25 -7 -45 -16 -45 -22 0 -13 17 -13 25 0 10 16 23 12 21 -6 -1
-21 31 -32 74 -23 l35 6 -32 2 c-18 0 -33 6 -33 11 0 6 15 10 33 8 33 -2 77
28 77 52 0 6 8 10 19 10 10 0 30 11 45 25 15 14 31 25 37 25 10 0 99 85 99 95
0 3 -9 1 -19 -5 -28 -14 -36 -12 -21 5 9 10 9 15 1 15 -6 0 -11 5 -11 10 0 17
17 11 49 -16 30 -25 31 -25 31 -5 0 12 5 21 10 21 6 0 10 7 10 15 0 8 -4 15
-10 15 -19 0 -10 32 10 37 22 6 26 23 9 40 -7 7 -8 20 -5 30 7 17 8 17 22 -1
8 -11 14 -30 14 -43z m1660 -322 c0 -5 -7 -14 -15 -21 -9 -8 -12 -17 -7 -22 5
-5 5 -33 0 -66 -5 -31 -9 -65 -9 -75 0 -10 -5 -15 -11 -11 -7 4 -8 2 -4 -4 9
-15 -4 -152 -14 -152 -4 0 -10 19 -13 41 -6 48 -20 61 -59 56 -15 -2 -25 0
-22 5 3 4 15 8 27 8 21 1 21 2 -5 21 -16 11 -28 26 -28 32 0 7 5 4 11 -5 17
-31 39 -22 33 12 -4 17 -2 30 3 30 16 0 24 82 10 100 -10 13 -10 13 3 3 22
-16 62 -20 67 -5 3 8 -1 10 -13 5 -14 -5 -13 0 6 25 23 31 40 41 40 23z
m-2096 -123 c-3 -11 1 -27 10 -37 8 -9 14 -30 13 -46 -1 -21 3 -30 13 -30 16
0 18 31 5 74 -8 23 -8 23 19 6 19 -13 25 -23 20 -37 -4 -13 2 -28 16 -43 14
-15 18 -25 11 -30 -16 -9 -13 -34 4 -52 11 -11 13 -19 5 -28 -6 -7 -8 -20 -4
-28 3 -10 -2 -21 -15 -29 -12 -7 -21 -18 -21 -25 0 -16 -36 -17 -45 -2 -4 6
-9 25 -10 42 -2 18 -9 52 -15 77 -6 25 -11 58 -11 74 0 16 -6 37 -13 48 -8 11
-12 28 -9 38 3 10 0 27 -6 38 -6 11 -8 28 -5 36 5 14 9 13 25 -5 12 -14 17
-30 13 -41z m1224 -593 c-2 -44 1 -74 6 -72 6 2 10 19 10 38 1 27 5 34 21 34
25 0 34 -42 11 -51 -21 -8 -21 -24 0 -24 25 0 13 -44 -13 -48 -18 -3 -23 2
-24 20 l-2 23 -4 -22 c-2 -13 -8 -23 -13 -23 -5 0 -15 -3 -24 -6 -11 -4 -19 2
-25 17 l-10 24 0 -23 c-1 -19 -6 -23 -28 -20 -21 2 -29 9 -31 28 -2 23 -2 24
12 7 10 -13 16 -15 21 -6 4 6 3 14 -2 18 -5 3 -12 14 -16 24 -5 13 -1 17 21
17 25 -1 26 -2 9 -14 -12 -9 -14 -16 -7 -21 18 -11 42 16 36 41 -5 18 -1 23
22 29 l27 7 -31 13 c-70 29 -74 29 -74 -4 0 -17 -4 -31 -10 -31 -9 0 -15 82
-6 91 3 2 32 5 66 6 l62 3 -4 -75z m-461 -352 c-8 -84 -21 -194 -47 -388 -11
-82 -20 -169 -20 -192 0 -24 -4 -43 -10 -43 -5 0 -9 8 -8 18 2 9 -1 48 -6 86
-6 52 -5 71 5 77 17 10 23 59 8 59 -6 0 -9 -6 -6 -14 3 -8 -1 -20 -10 -28 -14
-11 -15 -10 -9 9 4 12 2 24 -4 28 -19 12 -10 25 14 19 21 -5 25 -1 31 27 5 23
4 34 -5 37 -9 3 -9 6 0 12 15 9 29 68 35 147 3 33 9 92 15 130 5 37 10 71 10
76 0 4 3 7 6 7 4 0 4 -30 1 -67z"/>
<path d="M19276 5983 c-2 -10 -9 -56 -15 -103 -5 -47 -18 -147 -27 -223 -15
-119 -15 -140 -3 -148 27 -17 37 -9 49 39 l12 47 21 -42 c20 -40 37 -56 37
-33 0 5 13 7 30 4 19 -4 30 -2 30 5 0 6 8 11 19 11 21 0 27 -21 40 -130 4 -36
9 -53 9 -37 2 31 21 36 29 7 8 -31 17 -24 32 25 9 30 10 49 4 58 -7 8 -6 22 2
42 l13 30 7 -28 c4 -15 5 -41 3 -57 -3 -19 -1 -29 6 -27 10 4 10 102 0 119 -3
4 -23 12 -45 18 -22 6 -37 15 -34 20 4 7 13 6 25 0 27 -15 38 -12 17 5 -21 15
-41 85 -25 85 5 0 6 6 2 13 -5 8 -3 8 9 -2 9 -7 15 -17 12 -21 -3 -5 -1 -11 5
-15 17 -10 12 -38 -6 -31 -10 4 -8 -3 8 -22 l23 -29 3 36 c2 20 -1 37 -7 39
-6 2 -11 8 -11 13 0 6 5 7 10 4 6 -3 10 4 10 17 0 18 -2 20 -10 8 -6 -9 -10
-10 -10 -3 0 6 4 14 8 17 5 3 10 58 11 123 1 65 -1 114 -5 110 -5 -4 -7 -23
-6 -42 1 -18 -2 -36 -8 -40 -5 -3 -10 -11 -10 -16 0 -6 4 -7 10 -4 6 3 7 -1 4
-9 -3 -9 -12 -16 -19 -16 -7 0 -16 -7 -19 -16 -8 -21 -8 -24 4 -24 5 0 9 6 8
13 -2 6 3 12 11 12 8 0 16 -10 17 -22 3 -17 0 -21 -14 -17 -13 5 -14 4 -3 -4
14 -10 9 -42 -8 -42 -12 0 -23 29 -15 41 3 5 0 9 -6 9 -6 0 -10 20 -9 50 1 28
6 50 11 50 4 0 8 7 8 15 0 8 -4 15 -10 15 -5 0 -10 5 -10 11 0 5 5 7 10 4 6
-3 10 -1 10 4 0 6 -5 11 -11 11 -6 0 -8 8 -4 19 3 11 3 31 -1 45 -6 26 -6 26
-114 26 -95 0 -109 -2 -114 -17z"/>
<path d="M20196 5978 c-3 -13 -8 -144 -11 -293 -3 -148 -10 -423 -15 -610 -5
-187 -12 -432 -15 -545 -3 -113 -10 -367 -15 -565 -16 -572 -50 -1914 -50
-1977 l0 -58 -192 -1 c-209 -1 -209 -10 -4 -29 66 -6 159 -18 208 -26 49 -8
99 -14 111 -12 l22 3 -20 20 c-18 18 -20 31 -18 135 11 475 43 1825 48 1950 3
85 10 328 15 540 10 364 21 763 36 1268 l7 222 -51 0 c-45 0 -52 -3 -56 -22z"/>
<path d="M22886 5803 c-4 -109 -11 -313 -16 -453 -5 -140 -14 -412 -20 -605
-6 -192 -15 -474 -20 -625 -6 -151 -14 -432 -20 -625 -5 -192 -12 -393 -15
-445 -2 -52 -9 -286 -15 -520 -6 -234 -14 -472 -18 -530 l-7 -105 -30 -3 c-85
-11 -90 -9 -90 25 0 42 -23 44 -38 3 -6 -16 -14 -30 -17 -30 -11 0 -27 15 -33
30 -4 12 -6 11 -6 -2 -1 -10 -5 -18 -11 -18 -5 0 -11 21 -11 48 l-2 47 -7 -40
c-7 -38 -7 -38 -9 18 0 34 3 56 8 52 5 -3 12 -1 16 5 3 5 -1 10 -9 10 -11 0
-16 10 -16 33 0 21 -8 41 -20 52 -11 10 -20 30 -20 44 -1 25 -2 24 -15 -8 -19
-42 -19 -39 7 -43 20 -3 21 -9 23 -100 0 -54 -2 -98 -5 -99 -16 -3 -88 -8
-189 -13 -63 -3 -117 -8 -120 -12 -3 -4 47 -4 111 -1 85 4 155 0 253 -13 122
-16 143 -17 191 -4 30 8 74 14 98 14 34 0 47 5 59 23 21 32 -1 51 -28 24 -17
-17 -17 -19 -2 -14 9 4 17 2 17 -3 0 -6 -9 -10 -20 -10 -20 0 -22 5 -23 70 -1
48 14 696 18 805 2 61 7 216 10 345 8 323 24 890 45 1530 5 162 12 387 15 500
3 113 10 308 16 435 5 126 9 269 9 317 0 79 -2 88 -19 88 -17 0 -19 -13 -25
-197z"/>
<path d="M26670 5981 c30 -10 80 -22 110 -26 42 -6 50 -9 34 -15 -35 -13 -145
0 -170 21 -6 5 -14 6 -17 2 -4 -3 -13 -1 -21 6 -11 9 -15 8 -20 -5 -3 -9 -1
-23 5 -30 6 -7 11 -28 11 -46 0 -33 22 -77 33 -66 3 3 44 -3 91 -12 47 -10 94
-16 104 -13 10 3 31 -2 48 -11 36 -18 52 -20 52 -6 0 6 -8 10 -18 10 -10 0
-23 5 -29 11 -6 6 -46 13 -89 15 -42 2 -93 9 -113 15 -20 7 -42 13 -48 15 -7
2 -13 13 -13 24 0 19 4 21 33 15 24 -5 28 -4 17 4 -8 6 -22 11 -31 11 -9 0
-21 11 -27 24 -10 22 -9 24 11 22 22 -3 50 -11 77 -25 8 -4 35 -8 59 -10 47
-3 101 -19 69 -20 -10 -1 -18 -5 -18 -11 0 -5 -14 -10 -32 -10 -50 0 -20 -18
37 -23 28 -2 59 -1 70 4 19 6 18 8 -5 17 -14 6 -20 11 -15 12 6 0 4 4 -4 9
-10 7 -5 11 18 16 34 7 44 40 14 48 -38 10 41 6 108 -5 83 -13 74 -29 -13 -26
-32 1 -60 -1 -64 -4 -11 -12 52 -18 119 -13 59 5 67 3 68 -12 3 -41 5 -46 18
-51 9 -3 11 0 6 8 -4 6 -8 32 -9 56 -1 35 2 44 15 44 12 0 16 -11 18 -52 1
-28 4 -54 6 -57 11 -10 43 36 35 50 -5 8 -4 20 3 29 9 12 9 13 -3 3 -23 -21
-27 -15 -24 30 l4 42 -128 1 c-115 2 -121 1 -67 -8 33 -6 68 -11 78 -11 39 -3
14 -17 -30 -17 -49 0 -113 18 -113 32 0 4 -39 8 -87 7 -49 0 -82 -3 -75 -6 6
-2 12 -9 12 -14 0 -11 -43 -7 -51 4 -3 5 -28 11 -55 13 l-49 4 55 -19z"/>
<path d="M27568 5993 c12 -3 22 -8 22 -13 0 -4 17 -11 38 -14 20 -4 51 -13 67
-20 17 -8 50 -19 75 -25 149 -39 197 -52 212 -61 10 -6 30 -10 45 -10 14 0 23
-3 19 -7 -9 -9 -89 -4 -96 6 -3 4 -34 14 -70 21 -36 8 -76 20 -90 27 -14 7
-36 13 -50 13 -15 0 -30 4 -35 9 -6 5 -26 12 -45 15 -34 7 -35 7 -10 -8 14 -8
29 -12 33 -9 5 3 12 0 16 -6 4 -6 29 -17 56 -24 27 -7 50 -18 53 -26 3 -9 -2
-11 -17 -6 -12 4 -21 2 -21 -4 0 -6 13 -11 28 -11 15 0 32 -4 38 -9 5 -4 46
-16 92 -27 62 -13 81 -21 77 -32 -3 -7 -5 -18 -5 -23 0 -8 -15 -5 -55 11 -11
4 -47 15 -80 23 -97 24 -205 57 -234 71 -40 21 -71 28 -71 18 0 -5 35 -21 78
-36 42 -15 86 -31 97 -36 11 -5 36 -12 55 -15 19 -4 53 -13 75 -20 22 -7 61
-19 87 -26 57 -16 54 -24 -10 -21 -35 2 -43 0 -32 -7 8 -6 28 -11 43 -11 19 0
27 -4 24 -12 -4 -14 -20 -13 -77 1 -19 5 -55 15 -80 21 -25 6 -59 16 -76 21
-47 14 -74 9 -29 -6 86 -28 216 -65 230 -65 8 0 15 -9 15 -20 0 -11 -6 -20
-12 -20 -31 1 -193 50 -196 59 -2 6 -8 9 -12 6 -5 -3 -27 1 -49 9 -23 7 -43
10 -46 6 -3 -5 9 -12 27 -15 18 -4 38 -11 43 -15 12 -9 89 -34 168 -56 52 -14
57 -18 51 -37 -3 -12 -7 -23 -8 -23 -3 -4 -112 19 -126 26 -8 4 -40 13 -70 20
-30 8 -61 18 -67 23 -8 6 -13 6 -13 -1 0 -14 150 -65 233 -79 38 -6 42 -10 29
-29 -7 -11 -121 2 -167 20 -153 58 -178 65 -159 46 16 -16 175 -71 244 -84 53
-10 65 -16 65 -32 0 -21 -28 -23 -110 -10 -32 5 -35 4 -15 -3 14 -6 44 -15 68
-21 30 -8 42 -16 42 -29 0 -28 -25 -33 -73 -15 -23 9 -60 20 -82 26 -22 6 -67
19 -99 29 -33 10 -62 17 -64 14 -7 -7 66 -34 180 -67 l107 -32 -6 -30 c-3 -17
-13 -37 -21 -43 -13 -11 -13 -13 -1 -13 12 0 12 -2 -1 -10 -8 -5 -19 -5 -25
-1 -5 5 -27 11 -48 15 -61 11 -249 67 -282 84 -59 30 -65 32 -84 32 -11 0 -21
5 -23 11 -2 6 -27 14 -56 17 -35 3 -52 9 -52 18 0 19 63 18 98 0 96 -50 182
-85 196 -80 24 9 19 29 -6 30 -37 1 -81 13 -87 22 -3 5 -24 15 -46 23 -22 7
-44 17 -49 21 -6 4 -17 8 -25 8 -9 0 -29 7 -45 15 -33 17 -72 22 -46 5 13 -9
13 -10 0 -10 -33 0 -56 12 -67 36 -11 23 -1 35 12 14 10 -16 22 -12 28 10 4
18 0 20 -35 20 -23 0 -80 9 -127 19 -47 11 -108 24 -136 30 -27 6 -90 21 -139
34 -97 25 -118 45 -111 102 2 19 -5 39 -18 55 -16 20 -19 21 -13 5 4 -11 12
-42 17 -70 6 -27 14 -70 19 -95 14 -72 12 -83 -25 -121 -27 -30 -36 -50 -46
-105 -7 -40 -20 -77 -31 -87 -10 -10 -18 -32 -18 -52 0 -18 -3 -40 -6 -48 -3
-8 2 -21 11 -30 14 -14 14 -17 0 -24 -11 -7 -18 -39 -25 -124 -6 -62 -18 -166
-26 -229 -9 -64 -17 -211 -19 -333 -2 -121 -6 -221 -8 -224 -7 -7 -121 53
-136 71 -8 9 -18 16 -24 16 -5 0 -33 19 -61 43 -28 23 -73 53 -100 67 -27 14
-81 54 -120 90 -89 81 -126 110 -196 146 -77 40 -147 100 -170 145 -11 21 -29
46 -39 56 -10 10 -21 27 -24 38 -5 19 -5 19 -12 -2 -8 -24 -25 -32 -25 -11 0
6 -8 20 -17 30 -10 11 -22 34 -28 51 -11 33 -45 51 -45 23 0 -9 3 -16 8 -16 9
0 33 -52 27 -58 -3 -3 -17 0 -31 7 -21 9 -24 14 -15 25 8 10 9 16 1 21 -5 3
-15 -6 -21 -22 -6 -17 -7 -29 -1 -31 6 -2 23 -14 39 -28 15 -13 47 -34 71 -46
23 -12 82 -54 130 -93 48 -39 114 -87 147 -108 33 -20 72 -48 88 -62 15 -14
27 -23 27 -20 0 3 9 -3 19 -12 35 -32 103 -88 119 -97 12 -7 12 -10 1 -17 -10
-6 -9 -10 6 -15 11 -5 28 -18 37 -30 10 -12 30 -25 45 -29 42 -10 150 -62 158
-75 6 -9 2 -9 -15 0 -12 6 -24 9 -27 6 -3 -3 3 -8 13 -12 10 -4 44 -18 74 -32
42 -19 74 -25 133 -26 78 -2 95 10 22 16 -27 2 -40 8 -40 18 0 11 8 14 28 12
18 -2 26 1 22 7 -3 6 -17 11 -30 11 -18 0 -23 4 -18 16 6 16 47 16 87 -1 14
-6 18 -5 14 6 -3 9 -22 15 -52 17 -38 3 -47 6 -44 20 2 9 17 20 33 23 l30 7
-32 1 -33 1 7 45 c3 28 1 50 -6 59 -14 16 -6 23 37 36 27 8 27 8 -5 9 -35 1
-49 30 -15 32 51 4 144 -4 197 -16 65 -15 385 -18 385 -3 0 4 -80 8 -177 8
-98 0 -194 4 -213 9 -19 5 -74 12 -122 16 -66 5 -88 10 -88 21 0 21 33 21 208
-2 133 -17 122 -16 122 -6 0 11 -199 37 -317 41 -7 1 -13 6 -13 12 0 11 215 8
283 -4 15 -2 27 -1 27 3 0 10 -136 28 -225 29 -38 1 -71 4 -73 6 -2 2 -1 18 3
35 7 30 9 32 48 29 23 -1 80 0 127 2 82 3 81 3 -40 9 l-125 5 1 30 c0 17 6 77
12 135 6 58 12 126 14 153 1 36 6 47 18 47 20 0 111 -36 210 -83 41 -20 89
-39 105 -42 32 -7 -164 93 -250 127 -27 11 -53 25 -57 31 -4 7 -8 38 -8 71 0
44 3 57 13 53 8 -3 14 0 14 6 2 36 15 73 28 84 11 7 12 13 6 18 -21 12 -11 35
14 35 14 0 25 -4 25 -10 0 -5 6 -10 14 -10 7 0 40 -8 72 -19 33 -10 82 -21
109 -24 46 -6 48 -5 31 8 -11 8 -30 15 -43 15 -13 0 -23 4 -23 9 0 5 -10 7
-22 3 -14 -3 -19 -1 -14 6 6 11 -11 16 -99 27 -27 4 -53 9 -58 12 -10 6 25 52
41 53 7 0 12 13 12 31 0 27 2 30 16 18 9 -7 58 -16 115 -20 55 -3 106 -12 112
-18 6 -6 25 -11 42 -11 34 0 75 -24 62 -36 -4 -4 -7 -2 -7 4 0 6 -6 9 -13 7
-7 -3 -34 -1 -60 4 -26 5 -47 5 -47 0 0 -5 5 -9 10 -9 6 0 10 -7 10 -15 0 -9
-10 -15 -26 -15 -14 0 -23 4 -19 10 3 6 1 10 -4 10 -6 0 -11 -4 -11 -8 0 -5
-26 -7 -57 -6 l-58 3 55 -13 c30 -8 79 -23 108 -35 54 -22 90 -28 60 -10 -10
5 -18 17 -18 25 0 11 8 9 33 -10 19 -14 36 -23 40 -20 3 3 11 3 17 -1 9 -6 9
-9 0 -15 -8 -5 0 -11 20 -19 18 -6 38 -17 44 -24 14 -18 162 -76 198 -79 15
-1 25 -4 23 -7 -7 -6 16 -31 29 -31 6 0 4 4 -4 10 -8 5 -11 12 -8 15 11 12 26
-4 33 -35 5 -24 14 -31 58 -45 29 -9 60 -21 71 -26 10 -6 43 -13 72 -16 44 -5
55 -3 60 11 3 9 14 16 24 16 10 0 20 6 23 14 7 18 -36 27 -75 15 -30 -8 -86 3
-170 34 -47 17 -56 26 -38 37 11 7 5 10 -22 10 -20 0 -39 4 -43 9 -6 11 -63
41 -77 41 -20 0 -119 32 -114 37 6 6 176 -37 192 -49 20 -15 163 -50 294 -72
8 -2 15 -9 15 -16 0 -7 6 -15 13 -18 7 -2 10 2 6 12 -3 9 -1 16 5 16 6 0 11
-6 11 -12 0 -18 75 -59 94 -52 9 3 16 1 16 -5 0 -7 -7 -14 -15 -17 -8 -4 -15
-12 -15 -20 0 -15 -7 -17 -64 -14 -21 1 -36 -2 -33 -8 4 -5 -13 -6 -41 -1 -58
10 -138 11 -129 3 3 -4 25 -6 49 -6 23 1 46 -4 50 -11 4 -6 33 -12 65 -13 104
-3 96 0 88 -41 -4 -21 -11 -44 -17 -50 -12 -15 -32 -17 -23 -3 3 6 -3 10 -14
10 -11 0 -23 -4 -26 -10 -3 -5 -21 -10 -38 -10 -24 0 -28 3 -17 10 12 8 10 10
-8 10 -13 0 -20 -4 -17 -10 8 -13 2 -12 -71 1 -32 6 -62 16 -66 22 -3 6 -23
12 -42 13 -20 2 -41 6 -46 9 -5 3 -11 1 -14 -4 -13 -21 210 -71 318 -71 l46 0
0 -51 c0 -48 -28 -117 -52 -127 -19 -8 -5 -20 31 -25 48 -6 201 -80 239 -114
7 -7 19 -13 25 -13 11 0 145 -65 247 -120 30 -17 58 -30 63 -30 23 0 136 -62
166 -91 26 -25 46 -34 88 -40 64 -9 123 -34 123 -53 0 -8 11 -17 24 -20 14 -3
39 -18 56 -32 17 -15 59 -41 93 -58 56 -28 84 -56 58 -56 -6 0 -11 6 -11 14 0
8 -16 17 -37 21 -21 4 -41 11 -44 16 -3 5 -37 12 -75 14 -60 4 -65 3 -36 -7
17 -6 32 -15 32 -19 0 -5 10 -5 22 0 22 8 47 -1 75 -26 10 -9 9 -12 -3 -17
-22 -8 -24 -8 -24 9 0 18 -17 20 -22 4 -3 -8 -8 -7 -18 2 -8 8 -27 14 -42 14
-15 -1 -30 5 -33 13 -3 8 -12 12 -20 8 -8 -3 -16 -2 -19 2 -6 10 -76 2 -76 -8
0 -4 23 -10 51 -14 47 -6 125 -32 176 -58 17 -8 36 -8 75 0 170 37 326 37 431
0 67 -24 127 -21 259 13 66 16 100 19 177 15 53 -3 173 -10 266 -15 94 -4 187
-12 208 -16 l37 -8 0 967 0 966 -141 0 c-91 0 -138 -4 -134 -10 3 -6 -4 -10
-17 -10 -18 0 -20 2 -8 10 9 6 -344 9 -960 9 -867 -1 -970 -2 -927 -15 26 -8
47 -16 47 -18 0 -2 -24 -3 -54 -2 -30 0 -49 4 -44 7 27 17 -74 27 -252 26
-107 0 -185 -2 -172 -4z"/>
<path d="M5805 4860 c-33 -9 -121 -34 -195 -54 -74 -21 -175 -50 -225 -66 -49
-16 -193 -59 -320 -95 -126 -37 -250 -73 -275 -81 -25 -7 -135 -40 -245 -73
-290 -86 -473 -143 -641 -199 -82 -28 -225 -71 -319 -96 -93 -26 -240 -69
-325 -96 -232 -73 -384 -120 -495 -150 -152 -42 -360 -102 -364 -106 -2 -2 4
-61 14 -131 9 -70 18 -139 20 -153 2 -14 9 -68 15 -120 6 -52 18 -142 25 -200
8 -58 22 -177 31 -265 22 -208 21 -205 76 -193 24 5 102 15 173 23 152 17 433
60 457 70 9 3 22 20 28 36 7 16 38 53 70 82 46 43 70 57 121 71 35 10 100 28
144 42 44 13 129 35 188 49 60 14 141 41 182 60 40 19 85 35 99 35 29 0 139
37 292 98 55 22 168 59 250 82 82 23 165 48 184 55 75 28 429 127 580 162 36
8 72 22 81 29 8 8 19 14 23 14 4 0 22 11 39 24 48 36 284 156 307 156 30 0 26
-44 -6 -69 -15 -12 -33 -21 -40 -21 -8 0 -14 -5 -14 -11 0 -6 -8 -8 -18 -5
-15 5 -17 -2 -18 -54 0 -34 -6 -66 -13 -73 -6 -6 -38 -12 -71 -12 -50 0 -61
-3 -71 -21 -12 -23 -6 -44 12 -44 6 0 7 9 4 20 -6 17 -2 20 29 20 48 0 86 -16
86 -36 0 -20 -28 -43 -52 -44 -9 0 -22 -8 -27 -17 -6 -10 -11 -12 -11 -5 0 6
-4 12 -10 12 -5 0 -7 -7 -4 -15 4 -8 12 -15 19 -15 7 0 15 7 19 15 8 23 28 18
21 -5 -5 -14 -2 -20 9 -20 9 0 16 -4 16 -10 0 -5 7 -7 15 -4 8 4 15 2 15 -4 0
-12 -72 -39 -127 -48 -48 -7 -48 -26 1 -24 59 4 66 1 65 -22 0 -13 -3 -17 -6
-10 -2 6 -9 9 -15 6 -5 -4 -3 -13 7 -24 21 -23 7 -32 -31 -20 -16 4 -24 9 -19
10 12 2 -24 18 -42 19 -7 1 -19 -12 -28 -29 -14 -27 -14 -29 0 -23 13 4 15 0
9 -21 -4 -17 -2 -26 5 -26 12 0 4 -13 -33 -50 -17 -17 -17 -20 -3 -26 9 -3 21
-3 27 1 5 3 10 4 10 0 0 -3 -12 -10 -26 -15 -14 -6 -22 -14 -19 -20 4 -6 -12
-8 -39 -6 -30 2 -50 -1 -57 -10 -10 -12 -14 -12 -24 2 -8 12 -17 14 -26 8 -8
-5 -34 -9 -58 -10 -24 -1 -47 -7 -51 -14 -4 -7 -13 -10 -18 -6 -6 4 -16 -2
-22 -13 -6 -12 -16 -18 -25 -15 -8 4 -15 1 -15 -5 0 -8 15 -11 43 -9 41 3 42
2 40 -26 -2 -27 -1 -28 14 -14 14 15 17 15 33 0 9 -9 20 -26 25 -37 7 -18 9
-18 12 -2 3 13 15 17 45 17 33 0 38 -3 29 -13 -6 -8 -8 -17 -4 -20 3 -4 1 -7
-5 -7 -7 0 -12 -14 -12 -31 0 -26 3 -29 20 -24 14 5 20 2 20 -9 0 -9 5 -16 10
-16 6 0 10 -9 10 -20 0 -11 -4 -20 -10 -20 -5 0 -10 6 -10 14 0 23 -29 41 -43
27 -9 -9 -7 -13 11 -17 25 -7 30 -24 6 -24 -9 0 -14 -5 -12 -12 6 -18 45 -19
62 -2 15 14 16 14 16 -2 0 -9 -8 -23 -17 -31 -16 -13 -16 -14 7 -8 22 5 23 5
6 -6 -13 -8 -15 -13 -7 -19 7 -4 -2 -7 -20 -8 -18 0 -35 -6 -39 -13 -4 -6 -13
-8 -19 -5 -6 4 -18 0 -27 -8 -8 -9 -21 -16 -27 -16 -7 0 -6 4 3 10 12 8 11 10
-7 10 -14 0 -23 -6 -23 -15 0 -8 -7 -15 -15 -15 -8 0 -15 -9 -15 -20 0 -15 7
-20 26 -20 22 0 24 3 15 14 -16 19 -2 26 28 15 19 -7 22 -12 13 -21 -7 -7 -12
-21 -12 -31 0 -18 1 -18 25 -3 13 9 29 16 34 16 18 0 1 -28 -20 -33 -13 -3
-17 -11 -13 -21 13 -35 -4 -62 -48 -75 -29 -9 -43 -10 -46 -3 -2 6 -10 8 -19
5 -12 -5 -14 -3 -8 8 8 12 6 12 -8 0 -14 -11 -40 -13 -115 -8 -104 6 -158 19
-129 30 10 4 17 12 17 18 0 8 -4 8 -12 2 -26 -20 -128 -32 -299 -38 -98 -3
-217 -8 -266 -11 -85 -6 -91 -5 -116 18 -16 15 -28 39 -31 59 -2 22 -9 35 -20
37 -11 2 -15 10 -12 18 3 8 -1 17 -9 20 -8 3 -17 14 -20 25 -4 11 -10 17 -15
14 -5 -3 -10 5 -12 17 -2 15 -13 25 -36 32 -21 6 -31 14 -28 22 3 8 2 13 -2
12 -4 -1 -31 4 -60 11 -75 19 -206 -7 -315 -61 -10 -5 -22 -6 -27 -3 -4 3 -15
-2 -24 -11 -9 -8 -20 -12 -26 -9 -5 3 -10 2 -10 -4 0 -5 -13 -12 -29 -16 -16
-3 -32 -13 -35 -22 -4 -10 -14 -13 -28 -10 -16 4 -29 -2 -49 -23 -15 -15 -30
-26 -33 -23 -6 7 -156 -69 -156 -79 0 -12 24 -9 45 5 35 24 117 45 217 57 54
6 112 16 130 21 18 5 76 14 128 20 52 6 106 12 120 14 14 1 64 6 112 10 102 9
101 10 102 -91 l1 -63 64 -7 c35 -4 136 -3 225 2 222 12 505 8 666 -9 117 -13
145 -13 205 -1 39 8 149 17 245 20 158 6 296 20 218 23 -16 1 -28 5 -28 10 0
5 23 28 50 51 52 44 60 57 35 57 -8 0 -15 -5 -15 -11 0 -6 -4 -6 -11 1 -7 7
-8 22 -1 47 7 23 7 38 1 42 -15 9 21 44 44 44 20 0 20 0 1 22 -16 18 -16 20
-2 15 20 -7 34 33 15 45 -8 5 -7 8 6 8 9 0 17 7 17 15 0 8 7 15 16 15 8 0 13
4 9 9 -3 6 -2 28 1 51 5 29 11 40 20 36 17 -6 18 6 3 21 -11 11 17 34 57 47
16 5 21 14 20 36 -1 17 -5 30 -11 30 -5 0 0 7 12 15 12 9 20 21 17 28 -2 7 10
26 27 42 21 19 30 24 26 13 -3 -10 -1 -20 5 -24 11 -7 5 98 -12 206 -5 30 -12
83 -15 116 l-7 62 -41 7 c-49 9 -78 7 -91 -6 -6 -6 -3 -9 10 -9 10 0 28 -8 39
-16 l20 -16 -20 5 c-75 21 -138 15 -157 -15 -3 -7 -10 5 -13 26 -10 50 19 114
55 122 125 29 180 48 180 63 0 9 -7 63 -15 121 -8 58 -27 203 -41 322 -24 191
-30 217 -47 222 -15 4 -17 8 -8 25 6 11 11 45 11 76 0 54 -1 56 -22 49 -23 -7
-23 -6 -5 14 16 18 18 30 11 89 -7 61 -9 65 -18 41 -5 -16 -13 -28 -18 -28
-11 0 -10 14 1 26 15 15 25 58 12 50 -6 -4 -11 0 -11 8 0 9 5 16 11 16 7 0 8
11 3 33 -4 17 -7 40 -6 50 1 21 -14 20 -93 -3z"/>
<path d="M19060 4323 c-10 -63 -14 -73 -32 -73 -11 0 -18 -5 -15 -12 2 -7 10
-12 16 -10 7 1 11 -14 11 -38 0 -22 5 -40 10 -40 6 0 10 4 10 8 0 4 12 9 26
10 14 1 45 16 69 33 35 25 44 38 49 72 3 23 8 53 12 67 4 20 3 22 -5 10 -9
-13 -11 -13 -11 3 0 9 -4 17 -9 17 -5 0 -16 3 -24 6 -11 4 -17 -2 -20 -18 -4
-21 -4 -21 -6 3 -1 23 -6 27 -35 31 l-34 4 -12 -73z"/>
<path d="M26873 4233 c-21 -3 -43 -16 -63 -40 l-32 -36 59 -28 c32 -16 90 -35
128 -44 39 -9 78 -18 88 -21 11 -4 17 0 17 10 0 9 -7 16 -16 16 -11 0 -14 6
-9 20 3 11 2 20 -3 20 -6 0 -8 9 -5 20 3 11 0 20 -6 20 -5 0 -8 7 -5 15 5 12
-7 14 -71 13 -42 -1 -80 3 -86 9 -9 9 0 13 44 14 9 0 15 4 12 10 -4 5 -9 8
-13 7 -4 0 -21 -3 -39 -5z"/>
<path d="M11240 4160 c-25 -4 -82 -7 -127 -6 -46 1 -83 -2 -83 -6 0 -5 -3 -7
-7 -7 -5 1 -39 0 -78 -1 -69 -2 -70 -2 -28 -12 34 -7 44 -15 49 -35 5 -19 2
-30 -12 -40 -17 -13 -15 -14 26 -13 77 3 101 0 95 -10 -8 -13 17 -12 130 0
118 14 139 20 126 33 -13 13 -15 87 -2 87 5 0 12 -12 14 -27 3 -23 4 -21 6 10
1 36 0 37 -31 36 -18 -1 -53 -5 -78 -9z"/>
<path d="M14506 3898 c-3 -51 -10 -136 -15 -188 -6 -62 -6 -97 1 -101 13 -8
13 -11 0 -36 -10 -19 -9 -23 9 -28 18 -6 20 -12 13 -48 -11 -69 -22 -91 -38
-78 -12 10 -13 8 -9 -8 8 -32 29 -32 53 2 23 30 23 32 12 171 -6 78 -11 199
-12 271 0 71 -2 131 -4 132 -2 2 -6 -38 -10 -89z"/>
<path d="M12286 3262 c-35 -40 -172 -98 -316 -136 -233 -60 -533 -102 -892
-124 -128 -8 -138 -7 -138 14 0 8 -4 14 -10 14 -14 0 -31 37 -24 54 5 12 11
13 24 6 28 -15 40 -12 34 8 -5 16 -5 16 9 0 11 -14 29 -18 76 -18 35 0 60 4
57 9 -6 9 67 21 114 18 49 -2 100 3 100 11 0 4 -82 7 -183 6 -180 -1 -182 0
-205 24 -13 13 -26 21 -29 18 -4 -3 2 -13 13 -20 28 -21 12 -29 -33 -17 -49
14 -120 14 -129 0 -4 -7 4 -10 22 -7 26 3 28 0 30 -36 2 -21 10 -46 19 -55 34
-38 22 -41 -177 -41 -368 0 -675 31 -903 91 -61 17 -141 55 -164 80 l-21 23 0
-35 c0 -24 7 -43 23 -57 48 -46 205 -101 335 -118 29 -4 59 -12 65 -19 7 -6
41 -80 76 -164 l64 -153 -22 -206 c-12 -114 -26 -247 -31 -297 -5 -49 -16
-155 -25 -235 -50 -466 -50 -469 -35 -454 8 8 22 119 50 404 5 52 16 158 24
235 8 77 22 212 31 300 9 88 20 169 24 180 l9 20 7 -20 c4 -11 43 -110 85
-220 78 -200 236 -626 260 -698 9 -31 16 -37 33 -35 13 2 21 10 19 18 -3 14
-119 338 -147 410 -7 19 -26 71 -43 115 -49 133 -143 375 -179 464 l-34 85 11
85 c22 165 18 153 48 147 15 -3 141 -10 280 -16 139 -5 257 -12 262 -15 6 -4
10 -13 10 -21 0 -8 26 -58 58 -112 67 -111 182 -312 217 -378 l24 -44 -131
-253 c-71 -138 -149 -288 -172 -332 -54 -101 -59 -115 -42 -115 7 0 33 39 58
88 25 48 96 186 159 307 62 121 118 230 124 242 5 13 15 23 20 23 6 0 61 -91
123 -202 l114 -202 -26 -65 c-14 -36 -28 -73 -31 -82 -5 -13 -1 -15 18 -12 19
4 29 17 42 49 10 26 23 44 32 44 14 0 14 2 0 18 -10 10 -17 25 -17 33 1 8 8 1
17 -16 10 -16 16 -36 15 -42 -5 -23 30 -63 54 -63 13 0 24 3 24 8 0 4 -18 38
-40 76 -33 56 -38 71 -29 88 6 11 46 106 89 212 86 211 132 319 161 384 11 24
27 61 35 82 18 45 29 45 37 -2 4 -18 15 -64 26 -103 15 -51 20 -62 21 -40 1
28 3 26 16 -15 8 -25 21 -72 29 -105 8 -33 28 -112 44 -175 16 -63 43 -168 60
-234 16 -65 35 -124 41 -130 18 -16 13 7 -84 399 -48 193 -96 394 -108 447
l-21 97 45 108 c26 59 48 115 51 123 3 10 35 22 88 33 160 36 294 85 349 128
58 46 63 54 58 99 -3 32 -3 32 -22 12z m-668 -348 c7 -27 20 -71 27 -97 l13
-48 -120 -302 c-65 -166 -126 -315 -133 -332 -40 -89 -56 -141 -50 -164 l7
-26 -20 25 c-37 47 -232 391 -232 410 0 15 49 111 133 260 112 199 147 267
147 284 0 9 1 16 3 17 10 3 194 26 202 24 5 -1 16 -24 23 -51z m-288 21 c0
-14 -33 -54 -41 -49 -5 3 -6 -1 -3 -9 3 -8 -10 -46 -29 -83 -19 -38 -42 -87
-51 -109 l-16 -40 21 25 c24 29 25 30 -30 -82 -41 -85 -61 -113 -61 -86 -1 19
-29 -34 -30 -55 0 -10 -4 -16 -9 -13 -14 9 -275 466 -269 471 2 1 106 8 233
14 126 7 231 14 234 16 6 7 51 6 51 0z"/>
<path d="M10640 3199 c0 -69 9 -89 37 -89 38 0 62 -17 56 -40 -3 -11 -1 -20 5
-20 15 0 20 56 7 74 -7 9 -24 16 -39 16 -20 0 -29 7 -40 33 -7 17 -13 33 -12
34 3 5 202 -40 220 -49 18 -10 19 -9 9 3 -10 12 11 14 141 12 136 -2 160 1
232 23 43 13 64 22 46 19 -118 -18 -286 -27 -407 -22 -127 5 -168 12 -237 42
-16 6 -18 1 -18 -36z"/>
<path d="M30080 3040 c0 -5 4 -10 8 -10 4 0 8 -9 8 -20 0 -15 -5 -18 -18 -14
-11 3 -18 0 -18 -7 0 -8 11 -10 34 -6 25 4 36 1 40 -9 4 -10 -3 -14 -24 -14
-17 0 -33 -1 -37 -2 -46 -11 -84 -14 -89 -7 -3 5 0 9 5 9 6 0 11 9 11 20 0 11
-5 20 -11 20 -5 0 -7 -4 -4 -10 4 -6 -13 -10 -42 -11 -45 -1 -46 -2 -21 -12
28 -11 46 -37 25 -37 -6 0 3 -13 21 -30 18 -16 29 -30 24 -30 -6 0 -6 -20 0
-51 5 -28 7 -54 4 -57 -3 -3 2 -11 12 -18 9 -7 14 -15 10 -19 -3 -4 -15 2 -26
13 -13 13 -17 23 -10 30 6 6 -1 11 -21 14 -16 2 -28 1 -25 -4 3 -4 -1 -8 -9
-8 -16 0 -47 31 -47 48 0 7 -9 12 -20 12 -11 0 -20 6 -20 13 0 8 -4 7 -10 -3
-5 -8 -10 -10 -10 -5 0 13 -50 36 -50 24 0 -5 -9 -4 -19 3 -10 6 -17 18 -14
25 3 7 2 13 -2 13 -13 0 -31 -26 -32 -48 -2 -19 2 -22 18 -17 11 4 19 3 18 -2
-3 -20 2 -34 11 -28 6 3 10 1 10 -4 0 -6 -7 -11 -16 -11 -8 0 -13 -4 -9 -9 3
-5 1 -12 -4 -15 -5 -4 -13 3 -16 15 -4 12 -12 18 -21 15 -11 -4 -13 1 -8 22
11 45 10 47 -21 45 -24 -2 -26 -1 -10 6 17 7 17 9 3 17 -14 8 -15 11 -2 28 14
19 14 19 14 -1 0 -29 27 -37 40 -12 6 10 8 23 5 28 -3 5 1 11 7 14 8 2 9 8 4
13 -5 5 -11 4 -13 -3 -7 -19 -31 -16 -44 6 -12 17 -49 18 -49 1 0 -5 -13 -13
-30 -19 -16 -5 -30 -6 -30 -1 0 4 -3 15 -6 24 -4 11 -1 16 11 16 11 0 15 -5
11 -15 -3 -8 -2 -15 2 -15 13 0 32 23 32 38 0 11 -3 12 -14 3 -10 -8 -16 -9
-21 -2 -9 16 -43 -9 -50 -36 -3 -13 -12 -23 -19 -23 -8 0 -17 -7 -20 -16 -4
-12 -1 -14 13 -9 11 3 23 0 27 -6 4 -8 3 -9 -4 -5 -19 12 -14 -12 6 -24 15
-10 15 -11 0 -6 -11 3 -26 -6 -42 -25 -14 -17 -30 -27 -36 -24 -9 5 -12 -6 -9
-32 0 -4 -8 -11 -18 -15 -11 -5 -3 -6 20 -3 32 4 37 2 37 -15 0 -11 -4 -20
-10 -20 -5 0 -10 5 -10 10 0 6 -9 10 -20 10 -11 0 -20 -4 -20 -10 0 -5 5 -10
12 -10 6 0 9 -2 6 -5 -9 -9 -59 14 -53 25 3 5 -1 10 -10 10 -12 0 -15 6 -10
21 5 15 4 19 -5 14 -6 -4 -9 -16 -7 -27 5 -17 2 -19 -19 -15 -16 3 -28 -1 -34
-12 -8 -14 -9 -14 -10 2 0 9 -5 17 -11 17 -5 0 -7 5 -4 10 4 6 12 7 18 3 7 -4
6 0 -2 10 -7 9 -20 17 -27 17 -8 0 -14 5 -14 11 0 7 -8 9 -20 5 -11 -3 -29 -9
-40 -12 -12 -4 -20 -2 -20 6 0 7 6 10 13 7 18 -7 47 12 30 20 -18 7 -16 23 1
23 8 0 22 -10 30 -21 10 -15 20 -19 33 -15 9 4 14 4 10 0 -7 -7 20 -44 33 -44
3 0 6 15 7 34 1 34 0 35 -32 31 -35 -5 -58 11 -32 21 17 6 30 44 16 44 -5 0
-9 -6 -9 -14 0 -16 -27 -29 -41 -20 -5 3 -9 13 -9 22 -1 12 -5 10 -15 -8 -11
-19 -14 -21 -15 -7 0 9 -5 17 -10 17 -6 0 -8 -12 -4 -27 3 -16 2 -23 -3 -18
-9 12 -33 13 -50 2 -6 -4 -19 -4 -30 0 -10 3 -15 2 -10 -2 4 -5 -1 -17 -10
-27 -16 -18 -16 -19 5 -25 12 -3 22 -10 22 -15 0 -6 -7 -7 -16 -4 -9 3 -20 6
-25 6 -5 0 -9 7 -9 16 0 8 -4 12 -10 9 -15 -9 -12 1 4 18 13 12 10 14 -16 15
-21 0 -28 -3 -24 -13 2 -7 -6 -21 -20 -29 -26 -18 -32 -36 -10 -36 22 0 29
-33 10 -47 -9 -7 -21 -10 -27 -6 -6 4 -7 1 -2 -7 5 -9 2 -10 -12 -6 -13 4 -27
-2 -42 -18 -22 -24 -51 -25 -78 -4 -7 5 -14 5 -17 -1 -4 -5 2 -14 11 -20 10
-5 14 -13 10 -17 -5 -5 -12 -2 -16 5 -11 17 -34 4 -27 -15 3 -8 -1 -14 -10
-14 -9 0 -14 6 -11 13 7 19 -8 41 -23 32 -9 -6 -9 -10 1 -17 11 -7 11 -11 1
-15 -6 -2 -10 -9 -6 -14 3 -5 -1 -16 -9 -24 -13 -13 -17 -11 -27 18 l-11 32
-20 -24 c-14 -18 -19 -19 -19 -7 0 9 5 16 10 16 6 0 10 7 10 16 0 15 3 15 27
-1 24 -16 26 -16 20 -1 -7 18 13 46 32 46 6 0 11 5 11 11 0 6 -7 8 -16 5 -9
-3 -20 -6 -25 -6 -5 0 -9 -7 -9 -15 0 -29 -35 -15 -79 31 -34 36 -41 48 -30
55 9 6 2 7 -21 4 -29 -4 -31 -3 -15 5 19 10 19 10 -2 6 -29 -5 -64 20 -56 41
4 11 3 14 -6 9 -7 -5 -10 -14 -7 -21 2 -7 0 -17 -5 -22 -7 -7 -5 -12 6 -17 9
-3 13 -2 10 4 -3 6 -2 10 3 10 13 0 42 -34 42 -49 0 -7 5 -9 10 -6 6 3 15 3
20 0 17 -10 -8 -35 -28 -28 -12 3 -13 2 -4 -4 12 -9 12 -59 -1 -80 -10 -16 9
-26 33 -18 25 8 26 -11 2 -24 -14 -7 -25 -6 -41 6 -17 11 -26 12 -34 4 -8 -8
-6 -11 7 -11 9 0 14 -5 11 -11 -5 -7 -12 -6 -23 4 -10 8 -22 12 -29 10 -6 -2
-15 1 -19 8 -5 9 -2 10 9 6 28 -11 19 11 -11 26 -24 12 -30 12 -42 -2 -8 -8
-15 -22 -15 -31 0 -8 -10 -19 -22 -25 -13 -5 -23 -13 -23 -18 0 -4 4 -6 9 -3
5 3 12 -1 15 -10 10 -25 7 -34 -9 -34 -18 0 -19 -12 -3 -28 21 -21 4 -21 -21
0 -19 14 -22 21 -12 27 15 10 11 52 -7 66 -22 17 -3 45 30 45 21 0 31 6 35 20
3 11 12 20 20 20 13 0 13 3 3 15 -7 8 -17 12 -22 9 -6 -4 -14 0 -19 7 -6 10
-9 4 -9 -19 0 -20 4 -31 10 -27 6 3 10 1 10 -4 0 -14 -13 -14 -28 1 -9 9 -12
9 -12 -1 0 -8 -7 -10 -20 -6 -14 5 -20 2 -20 -9 0 -9 -4 -16 -10 -16 -12 0
-13 10 -1 29 5 8 16 11 25 8 10 -4 16 -1 16 8 0 18 -17 28 -25 15 -8 -13 -57
-9 -68 5 -6 6 -10 6 -14 -2 -2 -7 -11 -13 -20 -13 -12 0 -9 -11 13 -47 17 -30
23 -48 16 -51 -20 -6 -13 -22 8 -22 11 0 20 7 20 15 0 9 9 15 23 15 16 0 18
-3 8 -9 -11 -7 -11 -13 3 -32 23 -33 21 -38 -21 -37 -61 1 -73 -1 -73 -16 0
-8 8 -17 18 -19 11 -3 8 -5 -9 -6 -15 0 -32 -8 -39 -16 -11 -13 -15 -13 -21
-3 -6 9 -9 4 -9 -15 0 -15 -7 -30 -15 -33 -8 -4 -12 -10 -9 -15 11 -19 -8 -30
-21 -12 -17 24 -21 18 -29 -42 -5 -42 -4 -46 5 -25 6 14 13 20 16 13 2 -7 11
-9 19 -6 12 4 10 -3 -5 -31 -11 -20 -16 -36 -11 -36 6 0 10 6 10 13 1 7 6 5
14 -5 7 -10 16 -15 19 -11 4 3 7 -12 7 -35 0 -22 3 -47 6 -56 9 -25 23 -9 19
22 -2 15 -2 21 1 15 3 -7 12 -13 20 -13 16 0 19 -26 3 -35 -6 -4 -8 -13 -5
-21 6 -17 1 -17 -25 -4 -10 6 -19 17 -19 25 0 8 -5 15 -11 15 -5 0 -7 5 -4 10
3 6 -1 10 -9 10 -14 0 -20 12 -17 33 2 13 -17 7 -23 -8 -3 -8 -10 -15 -17 -15
-6 0 -9 6 -6 14 3 8 -2 16 -14 19 -14 4 -19 14 -19 37 0 17 -4 29 -9 25 -5 -3
-11 2 -13 10 -2 13 -6 12 -16 -5 -11 -18 -10 -21 9 -29 13 -4 18 -10 12 -14
-18 -12 -3 -47 21 -47 21 -1 21 -1 1 -16 -12 -9 -21 -11 -23 -4 -2 5 -15 10
-28 10 -13 0 -24 5 -24 10 0 6 4 10 10 10 5 0 9 11 8 25 -1 14 -6 25 -10 25
-4 0 -8 7 -8 15 0 20 -19 19 -27 -2 -6 -15 -7 -15 -15 3 -8 18 -8 18 -5 -1 1
-11 9 -20 17 -20 8 0 16 -8 18 -17 4 -23 -12 -23 -34 -1 -9 10 -23 18 -31 19
-18 3 -42 33 -43 54 -1 17 -23 50 -34 50 -4 0 -4 -9 -1 -20 4 -11 2 -20 -4
-20 -6 0 -11 5 -11 10 0 6 -3 9 -7 8 -5 -2 -10 2 -11 7 -7 20 -25 35 -35 28
-5 -3 -16 2 -23 12 -7 10 -20 15 -29 12 -8 -4 -15 -3 -15 2 0 12 39 21 46 10
3 -5 11 -9 17 -9 8 1 7 5 -3 13 -8 7 -20 21 -26 32 -7 11 -19 19 -28 17 -9 -2
-16 2 -16 8 0 5 4 10 8 10 17 0 5 45 -13 48 -10 3 -15 0 -11 -7 4 -7 -1 -11
-13 -11 -14 0 -19 5 -15 15 4 9 19 15 40 15 19 0 34 5 34 10 0 12 -16 13 -58
1 -23 -7 -32 -6 -32 2 0 7 -4 6 -10 -3 -7 -12 -12 -12 -29 5 -12 10 -24 15
-28 12 -3 -4 -1 -7 6 -7 8 0 11 -6 7 -16 -3 -8 -2 -12 3 -9 5 3 13 1 16 -5 5
-8 11 -7 21 1 17 14 19 -2 2 -20 -11 -10 -9 -12 6 -9 10 1 21 -3 23 -9 3 -7
-1 -13 -9 -13 -7 0 -19 -9 -25 -20 -11 -16 -10 -21 5 -29 9 -5 13 -13 9 -17
-5 -5 -12 -2 -17 6 -5 8 -12 11 -16 7 -4 -4 1 -14 12 -22 11 -8 14 -15 7 -15
-7 0 -13 -5 -13 -11 0 -7 7 -8 18 -4 28 12 72 15 72 6 0 -5 -7 -11 -15 -15 -8
-3 -12 -12 -9 -21 4 -8 -1 -17 -10 -21 -9 -3 -16 -10 -16 -15 0 -4 7 -6 15 -3
11 5 13 2 9 -10 -3 -9 -15 -16 -25 -16 -12 0 -19 -7 -19 -18 0 -14 8 -18 38
-17 20 1 47 7 60 13 20 11 25 10 47 -14 14 -15 23 -34 21 -41 -3 -7 -1 -13 4
-13 6 0 10 -4 10 -10 0 -5 -7 -7 -15 -4 -8 4 -17 -1 -21 -10 -9 -24 -23 -19
-30 9 -3 14 -11 25 -16 25 -6 0 -8 -7 -4 -15 3 -8 1 -15 -3 -15 -5 0 -12 6
-14 13 -4 8 -6 8 -6 -2 -1 -11 -5 -10 -17 5 -14 18 -15 17 -12 -18 2 -21 0
-38 -4 -38 -8 0 -10 8 -12 52 -1 15 -5 30 -10 35 -5 4 -7 -4 -4 -19 4 -21 1
-27 -18 -31 -13 -2 -25 1 -28 7 -3 7 -8 6 -15 -4 -16 -22 -13 -30 9 -30 11 0
20 5 20 10 0 6 7 10 16 10 14 0 14 -3 4 -15 -7 -8 -21 -15 -31 -15 -17 0 -17
-2 2 -34 14 -24 25 -33 37 -29 10 3 13 1 7 -4 -14 -11 -17 -33 -5 -33 5 0 10
-7 10 -16 0 -8 -5 -12 -11 -8 -7 4 -7 -1 1 -15 9 -18 8 -27 -4 -46 -19 -28
-20 -35 -6 -35 6 0 10 7 10 15 0 8 5 15 11 15 7 0 9 10 7 25 -3 14 -1 25 4 25
6 0 7 8 4 18 -6 16 -5 16 8 0 7 -10 21 -18 30 -18 9 0 15 -6 14 -12 -2 -8 7
-13 20 -12 12 0 22 -5 22 -13 0 -8 -4 -11 -10 -8 -5 3 -10 2 -10 -4 0 -6 11
-13 24 -17 13 -3 23 -12 22 -21 0 -9 7 -17 17 -18 11 -2 17 3 17 16 0 10 5 19
10 19 6 0 10 -4 10 -9 0 -5 3 -16 6 -24 3 -10 -2 -17 -13 -20 -16 -4 -16 -5 0
-6 18 -1 24 -21 6 -21 -6 0 -8 -7 -5 -16 5 -13 1 -15 -24 -12 -17 3 -33 1 -36
-4 -3 -4 4 -8 15 -8 27 0 27 -27 1 -35 -11 -4 -18 -11 -15 -16 11 -18 -19 -9
-64 19 -3 1 4 9 15 16 22 17 14 28 -22 32 -15 2 -32 8 -38 15 -8 8 -5 9 14 4
22 -7 23 -6 11 8 -9 11 -21 15 -38 11 -22 -6 -23 -4 -18 19 6 22 4 25 -13 20
-13 -3 -26 4 -41 23 -11 14 -21 24 -21 20 0 -3 -9 2 -20 11 -11 10 -20 24 -20
31 0 9 -6 12 -15 8 -23 -8 -53 14 -48 35 4 14 -3 19 -34 24 -21 3 -46 8 -55
10 -20 4 -25 -11 -5 -18 15 -6 -78 -49 -113 -53 -18 -2 -21 -1 -11 6 13 7 13
11 0 26 -13 15 -12 16 10 9 15 -4 21 -3 17 3 -3 5 1 12 9 16 8 3 12 12 9 21
-3 8 -1 15 5 15 6 0 11 -7 11 -15 0 -8 5 -15 10 -15 13 0 9 19 -9 40 -10 13
-24 16 -55 12 -22 -2 -47 -9 -53 -14 -9 -7 -13 -7 -13 1 0 6 4 11 8 11 5 0 9
16 10 35 1 19 -3 35 -8 35 -6 0 -10 -13 -10 -29 0 -34 -15 -49 -24 -24 -4 9
-1 20 6 24 10 7 10 11 0 21 -9 9 -12 9 -12 -5 0 -15 -13 -21 -47 -20 -7 1 -10
-3 -7 -8 3 -5 1 -9 -3 -9 -5 0 -14 9 -21 20 -7 11 -20 20 -30 19 -9 0 -12 -3
-5 -5 7 -3 9 -12 6 -20 -4 -10 0 -12 11 -8 9 3 16 1 16 -5 0 -6 -7 -11 -16
-11 -8 0 -13 -4 -9 -9 3 -6 14 -9 25 -8 10 1 16 5 14 9 -3 4 -1 8 5 8 5 0 16
3 25 6 12 4 14 0 11 -17 -5 -25 19 -59 42 -59 7 0 13 -6 13 -14 0 -8 10 -22
23 -31 27 -19 30 -63 5 -71 -10 -3 -18 -12 -18 -20 0 -8 -8 -14 -17 -14 -15 0
-16 -2 -3 -10 23 -15 33 -12 60 13 14 13 33 23 43 21 11 -1 17 5 17 17 0 10 5
19 11 19 6 0 9 -7 6 -15 -5 -11 -1 -12 18 -5 14 5 27 5 30 0 3 -4 -3 -11 -12
-13 -13 -3 -12 -5 5 -6 13 0 21 -5 17 -11 -3 -5 -13 -6 -23 -3 -14 5 -15 3 -5
-7 10 -11 9 -16 -5 -27 -15 -13 -15 -13 7 -7 16 4 21 3 17 -5 -5 -7 -1 -9 9
-5 14 6 16 -1 13 -48 l-4 -54 33 -1 c37 -1 44 12 12 20 -25 7 -16 27 12 27 11
0 17 -4 14 -10 -3 -5 -1 -10 4 -10 17 0 13 -18 -9 -40 -20 -20 -28 -56 -10
-45 6 3 10 13 10 21 0 8 5 12 10 9 6 -4 7 -12 3 -18 -14 -22 -10 -44 7 -40 10
3 21 -6 29 -23 9 -21 14 -25 21 -15 13 22 37 5 45 -30 6 -24 9 -28 17 -18 8
11 8 10 4 -4 -3 -10 -6 -20 -6 -22 0 -2 -18 -2 -40 0 -22 3 -40 0 -40 -5 0 -5
7 -7 15 -4 12 5 13 2 8 -12 -14 -37 -26 -42 -50 -20 -21 17 -21 21 -8 36 8 9
12 20 8 23 -12 12 -23 7 -24 -10 -1 -10 -5 -4 -9 12 -4 17 -8 22 -9 12 -1 -15
-5 -16 -21 -7 -23 12 -27 32 -5 24 27 -11 15 5 -16 22 -29 15 -31 15 -26 0 6
-15 4 -15 -23 -1 -16 8 -39 15 -51 15 -13 0 -19 5 -16 13 3 8 1 20 -4 28 -6
10 -9 10 -9 2 0 -7 -4 -13 -10 -13 -5 0 -7 6 -4 14 6 15 -33 43 -43 32 -3 -3
5 -10 18 -16 23 -10 23 -10 -3 -5 -20 4 -28 1 -28 -9 0 -15 27 -30 48 -27 6 1
12 -4 12 -12 0 -7 16 -19 35 -27 19 -8 35 -17 35 -22 0 -11 38 -48 49 -48 9 0
41 -61 41 -79 0 -6 5 -11 10 -11 6 0 10 -7 10 -15 0 -8 6 -15 14 -15 7 0 22
-12 32 -27 9 -16 26 -34 36 -41 11 -8 17 -19 15 -25 -2 -7 8 -20 22 -31 16
-11 19 -16 8 -12 -10 3 -25 6 -32 6 -8 0 -15 10 -17 21 -2 12 -13 28 -25 37
-21 13 -23 13 -23 -2 0 -9 8 -16 18 -17 10 0 7 -4 -11 -11 -30 -11 -62 -4 -52
12 3 5 -1 10 -9 10 -9 0 -16 7 -16 15 0 8 -9 15 -20 15 -17 0 -19 -3 -10 -20
6 -10 17 -23 26 -28 9 -5 12 -15 8 -25 -7 -19 -20 -22 -29 -7 -3 6 -1 10 6 10
8 0 8 4 -1 15 -7 9 -19 14 -26 11 -8 -3 -11 0 -7 10 4 12 1 13 -21 4 -15 -5
-32 -9 -39 -7 -7 1 -11 -4 -9 -10 1 -7 -2 -13 -7 -13 -6 0 -8 12 -7 28 2 15 4
33 5 40 0 6 8 12 17 12 14 0 14 -3 4 -15 -10 -12 -10 -15 4 -15 9 0 16 7 16
15 0 8 5 15 12 15 6 0 2 9 -10 20 -12 11 -26 20 -31 20 -6 0 -8 7 -5 15 4 8 1
15 -5 15 -14 0 -15 -32 -1 -46 6 -6 4 -10 -8 -11 -62 -3 -134 -23 -84 -23 26
0 27 -7 6 -31 -14 -16 -14 -18 6 -24 21 -7 21 -8 4 -27 -15 -15 -16 -21 -5
-27 10 -6 10 -10 2 -16 -9 -5 -9 -10 0 -21 16 -19 43 -18 35 1 -8 21 7 19 27
-3 19 -21 22 -32 8 -32 -5 0 -11 8 -14 18 -4 16 -4 16 -12 -1 -11 -25 -1 -31
55 -31 28 0 50 -4 50 -9 0 -5 -20 -7 -45 -5 -31 2 -45 -1 -45 -9 0 -23 -18
-13 -32 17 -7 17 -19 30 -25 30 -7 0 -13 5 -13 10 0 6 -12 9 -27 9 -21 -1 -23
-2 -8 -6 34 -8 36 -19 11 -46 -25 -27 -53 -37 -40 -14 4 6 -5 1 -20 -13 l-27
-25 10 27 c8 20 7 29 -5 38 -10 9 -14 9 -14 1 0 -6 -11 -13 -25 -17 -28 -7
-32 -19 -9 -28 8 -3 12 -10 9 -16 -4 -6 1 -7 11 -3 11 4 15 2 13 -6 -3 -7 -8
-11 -13 -9 -4 2 -14 -8 -21 -22 -11 -19 -14 -21 -15 -7 0 19 -15 23 -26 6 -3
-6 0 -15 7 -20 8 -5 9 -9 3 -9 -5 0 -19 6 -30 14 -18 14 -18 15 -1 21 9 4 17
11 17 17 0 5 -13 0 -29 -11 -25 -18 -30 -19 -41 -6 -10 13 -8 15 12 15 14 0
28 3 31 6 9 10 -34 45 -45 38 -6 -4 -5 -10 3 -15 11 -7 9 -9 -6 -10 -11 -1
-28 -2 -37 -1 -13 1 -9 -6 13 -29 22 -23 28 -34 20 -42 -6 -6 -12 -22 -12 -36
-1 -19 -3 -21 -6 -8 -3 11 -11 16 -19 13 -12 -5 -12 -2 -3 17 9 18 9 20 -2 10
-21 -20 -29 -15 -25 15 2 15 1 20 -1 12 -3 -8 -10 -18 -16 -22 -7 -4 -7 -12 3
-22 7 -9 9 -20 5 -24 -4 -4 -10 -1 -12 6 -3 6 -12 12 -21 12 -13 0 -13 -2 3
-14 16 -12 17 -16 6 -30 -7 -9 -17 -14 -21 -11 -4 3 -13 -2 -20 -10 -7 -8 -20
-15 -29 -14 -13 0 -13 2 -1 6 26 11 52 40 41 48 -7 4 -9 22 -4 47 5 36 4 40
-10 35 -10 -4 -17 -2 -17 2 0 5 19 13 43 17 23 4 34 9 24 12 -9 2 -15 8 -12
13 4 5 -1 9 -9 9 -9 0 -16 -4 -16 -9 0 -5 -11 -8 -24 -9 -38 0 -146 -34 -146
-46 0 -6 -4 -5 -9 3 -8 12 -12 12 -26 -3 -43 -42 -106 -82 -90 -56 3 6 2 10
-4 10 -15 0 -23 -18 -10 -22 8 -3 6 -13 -5 -33 -10 -17 -15 -22 -12 -12 4 12
2 17 -6 14 -7 -2 -12 -17 -11 -33 2 -25 1 -26 -6 -9 -8 17 -10 15 -10 -13 -1
-31 0 -32 22 -21 12 7 35 25 52 41 l30 29 17 -22 c10 -11 18 -16 18 -10 0 6 6
11 14 11 8 0 17 6 20 13 5 9 7 9 12 0 8 -19 37 -16 30 2 -3 9 0 15 9 15 18 0
32 -23 17 -28 -21 -7 -13 -39 11 -47 12 -3 17 -8 11 -11 -15 -6 -4 -64 12 -64
8 0 14 -6 14 -12 0 -9 4 -8 10 2 6 9 10 10 10 3 0 -6 -4 -15 -10 -18 -5 -3
-10 -14 -10 -23 0 -14 2 -14 9 -3 5 8 14 10 21 6 10 -6 11 -1 6 18 -5 23 -3
26 26 29 18 2 32 8 31 14 -1 6 8 10 19 10 15 -1 22 6 23 21 3 39 16 39 46 4
26 -31 31 -33 54 -23 27 12 33 4 13 -17 -10 -10 -10 -12 -1 -7 7 4 28 0 47 -8
28 -12 34 -12 30 -1 -8 20 28 12 40 -10 8 -13 8 -19 -1 -22 -19 -7 -16 -21 5
-26 16 -4 16 -5 0 -6 -10 0 -18 -8 -18 -16 0 -23 -22 -18 -46 10 -12 14 -34
26 -50 27 -29 3 -73 42 -74 66 0 6 -7 12 -15 12 -19 0 -19 -7 1 -27 13 -13 13
-18 2 -25 -10 -7 -8 -8 5 -4 9 3 17 3 17 -1 0 -3 -8 -12 -17 -20 -16 -13 -16
-14 8 -9 19 4 29 1 33 -10 9 -22 9 -22 -24 -29 -19 -4 -30 -13 -30 -23 0 -14
2 -14 9 -3 7 11 10 10 14 -5 5 -18 5 -17 12 3 8 26 35 39 35 17 0 -8 -7 -25
-15 -37 -11 -18 -12 -31 -5 -58 7 -22 7 -35 0 -37 -5 -2 -10 -11 -10 -20 0
-12 5 -10 25 8 25 23 37 16 13 -8 -9 -9 -8 -16 5 -30 16 -15 19 -15 28 -2 9
13 10 12 5 -2 -3 -10 -1 -20 4 -23 6 -4 10 -19 10 -34 0 -20 -6 -30 -20 -34
-22 -6 -28 8 -7 16 10 4 10 6 0 6 -7 1 -13 8 -13 16 0 8 -5 15 -11 15 -5 0 -8
4 -5 9 11 17 -6 43 -25 38 -14 -4 -19 0 -19 14 0 20 -15 26 -24 10 -4 -5 0
-11 6 -14 7 -2 10 -8 6 -12 -11 -12 -37 20 -28 34 4 7 10 12 14 11 4 -1 12 1
19 3 9 4 9 7 0 18 -8 8 -13 9 -13 2 0 -6 -9 -13 -20 -16 -11 -3 -20 -2 -20 2
0 10 32 39 45 41 6 1 12 3 14 5 2 2 -8 2 -22 0 -17 -4 -27 0 -31 12 -4 9 -3
19 1 22 4 3 9 14 11 23 2 14 -2 13 -22 -7 -16 -16 -23 -32 -19 -43 5 -15 4
-15 -9 2 -8 11 -22 16 -34 13 -17 -4 -16 -5 4 -6 12 0 22 -6 22 -12 0 -5 -4
-7 -10 -4 -5 3 -10 2 -10 -4 0 -5 -9 -13 -20 -16 -24 -8 -26 -28 -5 -45 8 -7
13 -16 10 -20 -3 -5 -1 -11 5 -15 5 -3 10 3 10 14 0 11 5 23 12 27 7 5 8 3 3
-6 -5 -9 -4 -11 3 -6 7 4 12 15 12 25 0 20 27 48 37 37 3 -3 -2 -14 -11 -25
-12 -13 -14 -21 -6 -26 6 -4 8 -15 5 -26 -4 -11 -2 -19 5 -19 7 0 9 -8 5 -20
-4 -11 -2 -20 4 -20 6 0 11 5 11 11 0 5 5 7 10 4 6 -3 10 -13 10 -21 0 -8 -4
-13 -9 -9 -5 3 -12 1 -16 -5 -4 -6 6 -10 24 -10 17 0 31 -5 31 -11 0 -6 11
-20 25 -31 14 -11 22 -24 19 -30 -4 -7 -2 -8 4 -4 7 4 12 1 12 -8 0 -9 6 -16
14 -16 9 0 13 -10 12 -25 -1 -30 -12 -32 -26 -5 -6 11 -15 18 -21 15 -5 -4 -9
-1 -9 5 0 8 -6 8 -20 0 -11 -6 -20 -21 -20 -35 0 -27 -16 -42 -23 -23 -3 8 -6
6 -6 -4 -1 -23 -21 -24 -21 -1 0 14 -3 14 -20 -5 -24 -25 -24 -28 -6 -35 10
-4 13 -1 9 9 -3 7 0 14 6 14 10 0 15 -13 12 -32 0 -4 8 -12 19 -18 11 -6 20
-18 19 -28 0 -10 -3 -12 -6 -4 -7 18 -20 15 -26 -7 -3 -15 3 -24 27 -35 45
-23 79 -54 71 -66 -3 -5 2 -10 11 -10 16 0 16 -1 -2 -15 -18 -14 -18 -14 4 -8
22 5 32 -11 12 -20 -6 -3 -5 -4 2 -3 7 2 12 14 10 27 -1 17 0 20 7 10 5 -7 14
-10 21 -6 6 4 20 -1 32 -12 19 -17 51 -18 538 -21 l518 -3 7 32 c6 27 9 30 17
15 5 -9 7 -24 4 -32 -4 -11 6 -14 50 -14 46 0 64 6 101 30 24 17 47 30 52 30
4 0 17 9 30 21 12 12 57 39 99 61 42 22 95 57 118 77 22 20 55 45 74 56 18 11
52 31 75 45 23 14 66 44 96 67 30 23 67 45 84 49 16 4 43 15 60 25 16 9 46 20
65 24 19 4 46 15 60 25 14 9 41 22 60 29 19 6 51 22 70 35 19 12 46 26 60 29
14 4 39 19 55 35 57 53 172 142 184 142 16 0 146 76 169 98 27 28 90 72 101
72 6 0 19 10 31 22 11 12 20 18 20 13 0 -4 11 4 25 19 13 14 27 26 30 26 3 0
29 15 58 33 29 17 78 46 110 62 31 17 57 33 57 38 0 4 7 7 15 7 8 0 15 4 15 8
0 5 17 14 39 20 21 7 55 27 75 47 l36 34 0 810 c-1 792 -1 811 -20 824 -21 15
-17 29 6 20 17 -6 18 8 2 26 -11 11 -10 12 1 6 9 -5 12 -3 9 6 -6 19 -58 22
-58 4 0 -9 6 -12 15 -8 14 5 14 2 3 -22 l-13 -28 -8 36 c-5 21 -13 37 -19 37
-5 0 -16 7 -24 15 -9 8 -12 15 -8 15 3 0 1 7 -6 15 -14 17 -30 20 -30 5z
m-3034 -2029 c11 9 14 7 14 -10 0 -11 6 -21 14 -21 16 0 38 -54 28 -66 -4 -4
0 -5 8 -2 19 7 45 -38 26 -46 -6 -2 1 -5 15 -5 15 -1 30 -8 33 -17 3 -8 9 -13
14 -10 4 2 9 -5 9 -16 1 -12 7 -24 14 -28 8 -6 8 -9 0 -15 -7 -3 -9 -15 -6
-26 4 -11 2 -19 -4 -19 -6 0 -11 -8 -10 -17 0 -11 3 -13 6 -5 7 17 30 15 37
-4 5 -12 2 -15 -10 -10 -14 5 -15 4 -5 -8 9 -11 7 -15 -8 -19 -24 -6 -46 7
-36 23 5 9 1 10 -15 5 -14 -5 -20 -3 -16 3 7 11 -51 28 -61 18 -3 -3 0 -12 7
-21 11 -13 10 -14 -3 -9 -10 3 -17 -1 -20 -13 -3 -10 -5 -3 -6 15 -1 20 -5 31
-11 27 -8 -5 -9 10 -4 44 7 51 0 63 -24 39 -9 -9 -17 -6 -37 12 -14 13 -25 29
-25 37 0 7 -7 13 -15 13 -9 0 -21 11 -27 25 -12 28 -28 33 -28 10 0 -8 5 -15
11 -15 6 0 9 -7 5 -15 -3 -8 -1 -15 4 -15 5 0 6 -8 3 -17 -6 -16 -5 -16 10 -4
15 12 17 12 11 -3 -3 -9 -15 -16 -26 -16 -13 0 -18 5 -15 14 7 19 -18 40 -35
30 -9 -5 -8 -2 2 10 13 17 13 18 -5 15 -10 -2 -23 -15 -27 -29 -5 -18 -6 -14
-2 13 4 33 3 37 -18 37 -19 0 -20 2 -8 10 23 15 60 12 60 -4 0 -8 5 -18 11
-22 9 -5 10 4 5 31 l-8 38 24 -16 c37 -27 47 -30 61 -15 21 21 28 49 16 64 -8
10 -8 14 0 14 6 0 16 -9 23 -20 19 -30 30 -24 24 13 -3 17 -3 26 0 19 5 -10 9
-10 20 -1z"/>
<path d="M3160 2819 c0 -6 -7 -9 -15 -5 -8 3 -15 2 -15 -2 0 -4 -10 -9 -22 -9
-13 -1 -27 -8 -33 -16 -10 -14 -25 -14 -79 -1 -21 5 -27 4 -22 -5 6 -8 1 -8
-18 0 -31 14 -58 5 -50 -16 4 -10 13 -13 25 -10 11 4 19 2 19 -4 0 -6 8 -8 18
-5 13 5 14 4 3 -4 -8 -6 -11 -17 -8 -25 4 -12 0 -14 -19 -11 -13 2 -24 0 -24
-6 0 -5 -5 -10 -11 -10 -8 0 -8 5 1 15 7 8 19 15 26 15 8 0 14 5 14 10 0 14
-23 13 -38 -2 -6 -6 -15 -8 -19 -3 -5 4 -3 10 4 12 21 7 -9 43 -35 43 -13 0
-21 -4 -17 -10 3 -5 0 -18 -6 -28 -10 -16 -21 -19 -53 -16 -23 2 -35 1 -28 -2
24 -11 12 -23 -18 -17 -27 5 -30 3 -30 -21 0 -15 -5 -36 -10 -47 -8 -13 -7
-19 0 -19 6 0 13 7 16 15 9 23 33 -1 27 -25 -4 -15 0 -20 16 -20 11 0 30 -8
41 -17 25 -21 27 -45 3 -36 -12 5 -15 2 -10 -10 4 -11 1 -17 -7 -17 -7 0 -29
-3 -47 -6 -27 -5 -31 -3 -19 6 12 9 8 11 -18 6 -23 -4 -31 -2 -26 6 5 7 3 8
-5 4 -7 -5 -10 -15 -7 -23 4 -10 2 -13 -8 -10 -8 3 -32 -3 -53 -14 l-38 -20
38 6 c204 32 347 45 508 45 98 0 179 3 179 8 0 4 -40 6 -90 5 l-90 -2 14 22
c17 25 41 96 51 147 3 19 9 43 11 52 3 10 -2 18 -13 21 -16 4 -16 5 -1 6 18 1
33 34 23 51 -8 14 -35 13 -35 -1z"/>
<path d="M14556 2533 c2 -66 -1 -81 -18 -100 -25 -27 -37 -80 -29 -129 8 -49
16 -36 26 39 7 59 26 75 33 27 5 -30 -25 -107 -43 -114 -8 -3 -15 -15 -15 -27
0 -13 -8 -31 -17 -42 -17 -19 -17 -19 3 -13 20 6 21 5 12 -50 -5 -31 -6 -59
-3 -62 9 -9 34 32 36 58 1 21 2 19 9 -10 7 -27 5 -37 -8 -47 -15 -11 -12 -12
18 -13 l35 0 -1 168 c-1 166 -18 370 -33 385 -4 4 -6 -28 -5 -70z"/>
<path d="M24181 2447 c-9 -9 -80 -17 -145 -16 -39 0 -92 -34 -80 -52 3 -5 -6
-9 -19 -9 -13 0 -27 -3 -31 -7 -3 -4 -16 -8 -28 -10 -12 -2 -27 -8 -34 -14 -7
-6 -18 -8 -24 -4 -5 3 -10 2 -10 -4 0 -5 6 -11 13 -14 6 -2 -4 -8 -23 -11 -42
-9 -74 -31 -65 -45 4 -7 -6 -12 -27 -12 -30 -2 -31 -2 -5 -6 33 -5 34 -15 2
-29 -18 -9 -25 -9 -28 0 -3 7 -9 5 -18 -5 -8 -9 -32 -22 -54 -29 -22 -7 -49
-19 -60 -26 -11 -8 -27 -14 -37 -14 -21 0 -51 -42 -46 -66 3 -17 52 -52 75
-53 7 -1 24 -12 39 -26 15 -14 35 -25 45 -25 10 0 24 -6 32 -14 7 -8 39 -17
70 -21 31 -4 62 -13 68 -21 6 -8 22 -14 35 -14 14 0 32 -4 42 -9 31 -17 109
-31 178 -31 18 0 37 -7 43 -14 8 -10 23 -13 46 -9 23 4 43 0 59 -11 14 -9 38
-16 54 -16 16 0 35 -7 42 -15 7 -8 27 -15 46 -15 18 0 35 -4 38 -9 3 -4 23
-11 45 -15 26 -4 42 -12 46 -25 4 -13 12 -17 30 -14 16 4 32 -3 49 -20 16 -16
32 -23 44 -20 13 3 26 -4 40 -21 11 -14 28 -26 38 -26 31 0 47 -16 41 -39 -4
-18 -2 -20 17 -15 27 6 76 -30 76 -57 0 -12 6 -18 18 -17 35 3 50 -2 56 -19 4
-11 1 -22 -8 -29 -18 -13 -21 -50 -6 -59 6 -3 10 3 10 14 0 47 49 37 74 -16 9
-20 13 -39 8 -42 -16 -11 -21 -51 -6 -51 8 0 14 7 14 15 0 23 47 19 60 -5 8
-16 7 -23 -10 -37 -11 -10 -20 -26 -20 -36 0 -13 -5 -17 -15 -13 -8 3 -15 1
-15 -4 0 -11 15 -12 48 -4 12 4 22 12 22 20 0 25 23 27 42 4 24 -29 23 -50 -3
-50 -16 0 -19 -4 -14 -21 5 -15 4 -19 -4 -15 -6 4 -11 2 -11 -3 0 -6 5 -11 10
-11 6 0 10 -7 10 -15 0 -20 -19 -19 -42 2 -16 14 -21 15 -27 4 -5 -8 -14 -10
-20 -7 -6 4 -11 3 -11 -3 0 -17 23 -25 61 -22 32 2 37 -1 41 -24 4 -17 1 -28
-8 -32 -18 -7 -18 -37 1 -53 17 -14 11 -30 -11 -30 -8 0 -14 8 -14 18 -1 9 -7
28 -14 41 l-13 24 -12 -21 c-13 -25 -36 -30 -27 -6 4 10 1 14 -6 12 -7 -3 -14
-14 -16 -26 -2 -12 -9 -22 -15 -23 -7 0 -2 -4 11 -9 14 -6 31 -5 47 2 33 15
42 4 21 -27 -19 -28 -34 -32 -42 -10 -4 11 -11 8 -29 -13 -19 -22 -25 -24 -38
-14 -11 10 -17 10 -22 1 -10 -15 16 -31 35 -22 8 3 26 7 40 7 14 1 33 9 43 19
19 19 38 19 45 -1 2 -7 -4 -12 -13 -12 -9 0 -19 -9 -22 -20 -6 -22 -18 -26
-28 -10 -8 13 -25 13 -25 0 0 -5 -9 -19 -20 -30 -12 -12 -18 -26 -13 -33 4 -7
0 -7 -10 2 -9 7 -17 23 -17 35 -1 19 -1 20 -11 3 -6 -10 -9 -28 -8 -40 2 -13
-8 -34 -24 -51 -25 -27 -27 -28 -27 -7 0 11 -4 21 -10 21 -5 0 -10 -7 -10 -15
0 -7 -8 -18 -17 -24 -15 -8 -15 -11 -4 -25 11 -13 12 -22 2 -44 -9 -18 -9 -28
-2 -30 6 -2 11 -13 11 -24 0 -18 -1 -18 -17 -3 -10 11 -17 34 -17 63 -1 39 -5
49 -23 57 -13 5 -23 15 -23 22 0 18 29 43 50 43 13 0 17 5 13 20 -6 23 -14 25
-31 8 -9 -9 -12 -8 -12 6 0 16 -3 15 -24 -5 -20 -19 -22 -25 -11 -32 15 -8 10
-33 -12 -55 -22 -22 -15 -35 17 -30 41 6 46 -6 24 -49 -14 -27 -16 -37 -6 -40
18 -7 15 -20 -10 -45 -14 -14 -23 -18 -26 -10 -5 17 -32 15 -32 -2 0 -8 -7
-17 -16 -20 -23 -9 -24 -8 -24 15 l0 20 -26 -20 c-15 -11 -30 -18 -35 -15 -5
3 -9 0 -9 -5 0 -6 -7 -11 -15 -11 -8 0 -19 -9 -25 -20 -10 -19 -12 -20 -28 -3
-16 16 -17 15 -20 -6 -2 -13 -12 -26 -23 -28 -10 -3 -19 -11 -19 -19 0 -7 6
-11 13 -8 17 6 13 -76 -5 -87 -19 -13 -38 -11 -38 4 0 7 -8 17 -17 23 -14 8
-24 4 -46 -18 -26 -26 -26 -28 -8 -38 13 -7 22 -7 26 0 11 18 25 11 25 -12 1
-21 2 -21 11 -5 11 18 39 24 39 7 0 -14 -48 -43 -60 -35 -5 3 -17 -1 -26 -9
-20 -21 -38 -20 -30 0 12 30 -6 36 -24 7 -20 -32 -16 -60 6 -42 20 16 36 2 24
-22 -13 -24 7 -35 45 -25 29 7 34 -9 7 -23 -10 -5 -24 -6 -33 0 -12 6 -22 3
-34 -11 -19 -21 -55 -27 -55 -10 0 5 10 18 22 30 12 11 16 20 9 20 -7 0 -9 5
-6 10 3 6 -1 10 -9 10 -8 0 -18 -9 -21 -20 -3 -11 -11 -20 -17 -20 -7 0 -7 -4
1 -13 13 -16 -4 -37 -30 -37 -15 0 -17 6 -12 35 5 31 3 35 -16 35 -23 0 -27
10 -11 26 8 8 6 15 -5 24 -13 11 -15 9 -15 -13 0 -33 -10 -58 -20 -52 -9 6
-25 -13 -18 -20 2 -3 19 -1 36 4 47 14 38 -24 -10 -42 -19 -7 -25 -27 -8 -27
6 0 1 -9 -10 -20 -11 -11 -24 -20 -30 -20 -5 0 -10 -4 -10 -10 0 -5 7 -7 17
-3 13 5 15 2 11 -15 l-6 -22 766 4 c422 2 775 4 785 5 11 1 17 8 15 19 -3 9
-9 16 -15 15 -6 -1 -14 4 -17 12 -3 8 -1 15 4 15 6 0 10 4 10 10 0 5 -7 7 -15
4 -8 -4 -15 -14 -15 -24 0 -11 -5 -22 -12 -26 -8 -5 -9 -2 -5 10 4 10 1 19 -6
22 -15 6 -22 74 -7 74 5 0 11 12 11 28 1 15 3 20 6 10 2 -9 11 -19 19 -22 16
-6 20 9 4 19 -6 4 -6 15 0 31 6 14 8 29 5 34 -7 12 24 80 40 86 7 3 11 12 8
20 -3 8 1 14 9 14 8 0 15 7 15 15 0 8 -4 12 -9 9 -4 -3 -8 6 -8 20 0 21 5 26
24 26 23 0 24 3 16 30 -7 24 -6 30 6 30 23 0 45 25 32 38 -7 7 -3 17 12 32 12
12 18 25 14 29 -12 8 -11 45 1 62 6 8 10 33 10 56 0 28 4 43 13 43 14 0 16 17
2 22 -6 2 -7 24 -3 56 4 34 9 49 14 40 7 -10 9 -9 9 5 0 9 -4 17 -9 17 -6 0
-9 8 -9 18 0 9 -3 25 -7 35 -6 13 -4 16 9 11 9 -3 16 -1 16 5 0 6 -7 11 -16
11 -13 0 -14 3 -5 14 9 11 7 15 -10 19 -20 5 -20 7 -6 22 9 8 14 22 11 30 -4
8 -1 15 5 15 6 0 11 5 11 11 0 6 -7 8 -15 5 -14 -5 -14 -3 -1 16 11 16 12 26
5 40 -6 11 -8 26 -5 33 3 8 0 15 -7 18 -9 3 -9 10 1 31 8 19 9 33 2 44 -8 15
-9 15 -10 -3 -1 -17 -3 -17 -11 5 -6 13 -7 35 -4 48 5 21 3 22 -14 12 -18 -9
-21 -7 -27 15 -5 20 -1 30 15 42 21 14 21 16 4 28 -12 9 -22 10 -30 4 -8 -7
-15 -4 -22 10 -14 26 -14 31 4 31 8 0 15 8 14 18 0 9 -3 12 -6 5 -3 -9 -10 -7
-25 7 -11 10 -17 23 -14 28 11 18 -6 42 -30 42 -14 0 -24 6 -24 15 0 8 6 12
14 9 11 -4 11 3 -2 40 -9 25 -23 46 -30 46 -7 0 -10 5 -7 10 4 6 16 8 28 4 12
-3 2 7 -23 24 -25 17 -52 43 -61 59 -8 15 -25 33 -37 39 -29 14 -42 29 -19 21
9 -4 17 -2 17 3 0 6 -9 10 -19 10 -15 0 -18 5 -13 22 3 14 1 19 -6 14 -6 -3
-13 3 -17 14 -4 11 -10 18 -15 15 -4 -3 -10 5 -13 16 -3 12 -10 18 -16 14 -15
-9 -14 8 2 24 10 10 8 11 -7 5 -13 -5 -17 -4 -12 4 4 7 1 12 -9 12 -11 0 -14
6 -9 25 5 19 2 25 -11 25 -9 0 -13 -4 -10 -10 3 -5 2 -10 -3 -10 -9 0 -33 49
-36 75 -1 6 -7 9 -13 8 -7 -2 -15 6 -18 17 -4 11 -13 20 -21 20 -8 0 -14 5
-14 11 0 7 -10 9 -24 7 -17 -4 -23 -1 -19 9 3 7 1 13 -5 13 -6 0 -13 -6 -15
-12 -3 -8 -6 -7 -6 4 -1 12 -8 15 -26 12 -20 -3 -25 0 -25 16 0 11 -4 20 -10
20 -5 0 -10 -4 -10 -10 0 -5 -7 -7 -16 -3 -8 3 -13 12 -9 20 3 11 1 13 -10 9
-9 -3 -15 0 -15 9 0 14 -12 19 -73 30 -21 3 -47 15 -58 26 -17 17 -50 26 -101
28 -10 1 -20 12 -24 26 -7 29 -24 34 -24 7 0 -18 -2 -18 -52 0 -29 10 -61 22
-70 25 -10 3 -18 9 -18 13 0 5 -22 8 -50 8 -27 1 -59 6 -71 12 -12 7 -31 13
-43 15 -11 1 -59 9 -106 18 -91 16 -146 17 -159 4z"/>
<path d="M22980 1485 c-6 -8 -9 -19 -5 -25 4 -6 -6 -10 -25 -10 -23 0 -33 -5
-37 -19 -3 -11 -14 -22 -25 -24 -15 -4 -19 -11 -15 -26 4 -18 1 -21 -30 -21
-30 0 -34 -2 -23 -15 9 -10 9 -15 1 -15 -6 0 -11 -11 -11 -24 0 -41 -19 -79
-35 -72 -10 3 -15 -1 -15 -14 0 -10 -9 -22 -20 -25 -11 -3 -20 -13 -20 -21 0
-12 6 -11 30 6 17 12 35 30 41 41 5 11 14 17 20 14 5 -4 16 1 25 9 8 9 29 16
45 16 16 0 29 5 29 10 0 6 7 10 16 10 9 0 14 -7 12 -19 -2 -13 16 -38 51 -71
l53 -53 0 -111 c0 -61 -3 -120 -7 -130 -5 -10 -4 -36 2 -57 5 -21 7 -36 3 -34
-10 6 -30 -41 -30 -70 0 -26 28 -36 34 -12 17 63 22 97 15 109 -5 9 5 27 28
52 29 30 36 46 37 81 0 24 4 46 7 50 4 3 5 36 3 72 -2 37 0 71 5 77 15 20 21
74 8 79 -9 3 -9 9 1 26 10 17 10 26 1 37 -6 7 -9 20 -6 28 3 8 -3 22 -13 31
-17 16 -19 15 -22 -7 l-3 -23 -22 25 c-25 26 -32 50 -10 31 30 -25 36 20 10
73 -16 31 -23 36 -54 36 -20 0 -42 -7 -49 -15z"/>
<path d="M6320 1301 c0 -5 -19 -14 -42 -19 l-43 -10 40 -1 c55 -2 62 -9 66
-63 4 -46 3 -48 -21 -48 -14 0 -38 7 -54 15 -15 8 -37 15 -47 15 -11 0 -22 6
-25 14 -10 25 -29 25 -30 0 -1 -13 2 -21 7 -18 5 3 9 1 9 -4 0 -6 -7 -12 -15
-16 -10 -4 -15 1 -16 17 0 21 -1 21 -9 2 -13 -30 -12 -33 10 -40 11 -4 18 -11
14 -16 -3 -5 -10 -7 -15 -4 -5 4 -9 -1 -9 -10 0 -9 3 -14 8 -11 4 2 12 -6 18
-18 10 -21 8 -23 -22 -21 -19 1 -45 10 -58 19 -14 9 -30 16 -36 16 -5 0 -10 5
-10 10 0 6 -9 10 -20 10 -21 0 -27 -15 -9 -25 20 -13 3 -29 -31 -29 -31 -1
-36 -5 -50 -42 -21 -56 -37 -80 -46 -71 -5 5 -3 12 4 16 10 6 10 12 0 32 -18
33 -48 34 -48 3 0 -15 -6 -24 -16 -24 -10 0 -14 -7 -12 -22 2 -19 -2 -24 -29
-26 -18 -2 -33 -8 -33 -13 0 -6 5 -7 10 -4 17 11 32 -5 20 -20 -7 -8 -9 -19
-5 -25 3 -5 1 -10 -4 -10 -6 0 -11 9 -11 21 0 11 -4 18 -8 15 -5 -3 -21 2 -36
10 -16 7 -36 14 -45 14 -10 0 -26 7 -37 16 -19 15 -18 15 3 11 13 -3 26 -1 29
4 3 5 -5 9 -17 9 -18 0 -19 3 -9 15 18 22 2 37 -20 18 -10 -9 -17 -20 -14 -24
2 -4 -4 -5 -13 -3 -10 3 -27 -2 -38 -11 -11 -9 -14 -13 -7 -10 20 11 61 -15
78 -47 8 -16 19 -26 24 -23 10 6 40 -46 40 -67 -1 -7 -7 1 -15 17 l-15 30 6
-40 c3 -22 7 -48 10 -57 3 -10 1 -18 -5 -18 -6 0 -14 17 -17 38 -3 21 -11 39
-18 39 -6 1 -39 2 -74 3 -34 2 -65 7 -68 12 -3 4 -12 8 -20 8 -8 0 -12 -4 -9
-10 3 -5 4 -14 0 -20 -8 -13 -35 -1 -35 17 0 11 -5 10 -24 -4 -13 -10 -22 -23
-19 -28 2 -6 -14 -20 -36 -31 -40 -20 -40 -20 -25 -49 8 -16 19 -32 24 -35 4
-3 12 -23 16 -45 7 -37 6 -39 -10 -26 -13 11 -14 16 -4 22 9 6 6 9 -9 9 -13 0
-23 -4 -23 -8 0 -10 -105 -6 -122 4 -22 14 -88 22 -88 11 0 -7 -5 -6 -12 1
-10 10 -10 17 -1 32 10 15 9 19 -5 22 -9 3 -30 1 -46 -4 -20 -5 -32 -4 -37 4
-8 13 -23 4 -25 -15 0 -7 -2 -21 -3 -32 -1 -11 -5 -16 -9 -10 -4 6 -16 12 -27
13 -11 2 -23 8 -26 13 -7 11 -39 1 -39 -12 0 -5 6 -9 13 -9 7 -1 6 -5 -5 -13
-12 -9 -14 -17 -7 -30 15 -27 3 -20 -36 18 -29 30 -38 34 -55 25 -11 -6 -20
-15 -20 -19 0 -5 -9 -11 -19 -14 -21 -5 -36 17 -24 36 3 7 3 9 -2 5 -5 -5 -14
1 -21 11 -18 25 -76 34 -72 12 1 -9 -1 -21 -5 -28 -11 -17 -57 5 -50 23 3 9
-2 14 -13 14 -11 0 -15 3 -8 8 6 4 14 15 17 26 6 14 4 17 -9 12 -12 -5 -14 -1
-8 16 5 17 3 20 -11 14 -15 -5 -16 -4 -6 8 7 8 10 20 6 27 -6 8 -10 7 -16 -2
-6 -10 -9 -11 -9 -1 0 17 -17 15 -24 -4 -3 -8 -2 -12 4 -9 6 3 10 1 10 -5 0
-8 -9 -10 -25 -6 -17 4 -34 0 -53 -13 -15 -11 -43 -21 -62 -22 -46 -4 -58 -11
-34 -20 17 -7 17 -8 2 -8 -19 -1 -26 -21 -8 -21 6 0 10 -5 10 -11 0 -6 -9 -8
-22 -4 -36 11 -40 11 -45 -2 -3 -7 3 -13 13 -13 9 0 14 -3 11 -7 -4 -3 -2 -12
4 -20 14 -16 5 -17 -21 -1 -17 11 -22 10 -30 -2 -8 -12 -12 -13 -19 -2 -7 11
-9 11 -14 -2 -8 -21 -27 -20 -27 2 0 14 2 15 10 2 8 -13 10 -12 10 3 0 9 -4
17 -10 17 -5 0 -10 6 -10 14 0 8 -10 14 -25 14 -29 0 -35 -32 -9 -42 12 -4 15
-2 10 9 -3 8 -1 15 4 15 6 0 10 -9 10 -20 0 -12 -7 -20 -17 -20 -9 0 -13 -3
-10 -7 4 -3 -1 -12 -11 -19 -16 -13 -16 -13 1 -14 9 0 17 -7 17 -15 0 -15 -44
-16 -68 -1 -16 10 -20 -26 -5 -50 12 -19 11 -22 -2 -28 -17 -6 -45 15 -45 33
0 6 -7 11 -16 11 -8 0 -12 4 -9 10 3 6 2 10 -4 10 -5 0 -14 12 -19 28 -6 16
-11 20 -11 10 -1 -9 -6 -20 -12 -24 -8 -4 -9 1 -4 16 5 16 4 21 -6 18 -8 -3
-13 -14 -12 -24 2 -20 -32 -100 -46 -108 -5 -3 -7 3 -4 14 5 17 1 20 -18 16
-13 -3 -37 -5 -52 -5 -16 -1 -26 -5 -22 -10 9 -16 -14 -23 -52 -16 -26 5 -33
9 -23 15 27 17 -1 24 -80 23 -64 -1 -78 1 -73 13 9 25 -7 17 -56 -27 -10 -9
-30 -15 -45 -13 -23 2 -26 -1 -26 -31 0 -18 6 -36 13 -38 8 -4 7 -6 -4 -6 -20
-1 -62 43 -52 54 5 4 0 5 -9 2 -12 -4 -21 1 -28 14 -6 11 -15 17 -21 14 -5 -4
-9 5 -9 19 0 21 -6 25 -39 31 -37 6 -80 35 -52 35 6 0 11 -4 11 -10 0 -5 7 -7
15 -4 23 9 18 24 -9 24 -14 0 -32 7 -41 16 -21 21 -30 12 -15 -15 6 -12 7 -21
2 -21 -4 0 -13 12 -20 27 -11 26 -11 25 -7 -15 3 -25 1 -42 -5 -42 -5 0 -10 9
-10 20 0 11 -4 20 -9 20 -6 0 -5 -15 1 -37 13 -51 31 -92 38 -88 3 2 6 -4 7
-13 1 -9 4 -34 8 -55 6 -31 5 -36 -7 -32 -10 4 -25 -8 -43 -32 -16 -21 -32
-40 -35 -43 -4 -3 -9 -13 -13 -23 -4 -10 -12 -15 -17 -12 -6 4 -9 3 -8 -2 4
-12 -24 -83 -33 -83 -6 0 -23 -50 -19 -59 1 -2 -5 -8 -14 -13 -9 -5 -16 -15
-16 -22 0 -8 -7 -16 -15 -20 -8 -3 -15 -12 -15 -21 0 -13 179 -15 1674 -15
l1674 0 40 45 c22 25 50 73 63 108 21 55 24 77 23 202 -1 87 -10 193 -24 280
-12 77 -24 161 -27 188 -4 37 -9 47 -24 47 -11 0 -19 5 -19 11 0 6 7 9 15 5
19 -7 19 6 0 164 -8 69 -19 154 -23 189 -4 37 -12 66 -19 69 -7 2 -13 -1 -13
-7z"/>
<path d="M6554 1192 l-51 -3 3 -42 c1 -23 4 -44 5 -47 1 -3 1 -8 0 -13 0 -4 6
-52 14 -107 8 -55 15 -118 15 -140 0 -22 4 -40 9 -40 4 0 6 -10 4 -23 -2 -12
0 -54 6 -92 32 -211 47 -425 30 -425 -4 0 -5 -9 -2 -20 6 -23 -23 -137 -41
-160 -18 -24 -36 -59 -36 -70 0 -6 102 -10 293 -10 248 0 296 2 315 15 12 9
27 15 34 14 26 -3 36 1 40 19 4 15 13 17 42 14 24 -3 36 0 36 8 0 7 7 10 15 6
10 -4 20 3 27 19 6 13 15 22 19 19 14 -8 59 8 52 19 -3 6 -1 7 5 3 12 -7 72
19 83 36 4 6 29 11 58 11 32 1 51 6 51 14 0 7 7 10 15 7 10 -4 15 0 15 15 0
15 6 21 23 21 18 0 19 -2 7 -10 -11 -7 -7 -10 18 -10 22 0 32 5 32 15 0 8 5
15 10 15 6 0 10 5 10 12 0 6 -9 3 -20 -7 -11 -10 -20 -13 -20 -8 0 27 39 38
68 20 7 -5 12 -3 12 4 0 7 13 10 35 7 24 -3 35 0 35 9 0 7 11 15 25 19 14 3
25 12 25 19 0 8 8 11 20 8 11 -3 31 2 44 11 14 9 32 13 40 10 9 -3 16 -1 16 5
0 6 5 11 10 11 6 0 10 -7 10 -15 0 -8 5 -15 11 -15 6 0 8 8 4 19 -6 20 15 34
39 25 8 -3 21 5 30 18 13 18 18 20 25 9 11 -17 51 -5 51 14 0 9 6 12 16 8 10
-4 20 0 25 10 6 10 19 14 39 12 18 -3 29 0 27 7 -1 7 11 13 27 14 16 2 34 10
38 19 5 8 16 15 23 15 8 0 15 7 15 15 0 8 4 15 10 15 5 0 7 -7 3 -15 -7 -19
13 -16 39 5 18 15 29 16 27 4 0 -4 5 -11 13 -16 10 -7 10 -11 1 -15 -15 -5
-17 -23 -4 -23 5 0 13 10 17 22 4 13 12 26 18 30 6 4 7 11 2 15 -5 4 -11 2
-13 -5 -6 -17 -23 -5 -23 16 0 14 9 18 41 19 38 2 40 1 23 -12 -26 -20 -9 -19
21 1 14 9 25 24 25 34 0 18 23 20 65 5 15 -5 16 -4 6 3 -14 10 -6 36 9 27 5
-3 11 3 13 12 4 16 5 16 6 -1 1 -12 6 -16 16 -13 8 4 17 2 20 -3 11 -19 45
-11 45 10 0 11 5 17 13 15 7 -3 20 12 32 36 17 37 22 40 51 37 25 -3 30 0 27
13 -3 9 3 19 14 23 14 6 15 4 6 -5 -9 -9 -8 -15 4 -27 14 -14 12 -18 -18 -43
-19 -15 -35 -26 -37 -24 -2 2 -13 -6 -24 -17 -34 -34 -14 -29 40 10 28 20 96
66 151 101 55 35 98 68 94 74 -3 6 -2 7 4 4 10 -6 103 47 103 59 0 5 -81 3
-395 -11 -178 -8 -883 -45 -970 -50 -76 -5 -359 -18 -714 -32 -123 -5 -162 -3
-157 5 4 7 18 12 31 12 13 0 25 3 28 8 2 4 2 2 1 -5 -2 -8 12 -11 42 -10 43 2
56 10 32 20 -7 3 -3 6 10 6 13 1 20 -3 17 -9 -4 -6 17 -10 57 -9 64 0 169 15
133 18 -16 2 -15 4 10 16 l30 14 -30 -6 c-16 -3 -36 -10 -42 -16 -9 -6 -13 -6
-13 1 0 14 -27 23 -46 15 -12 -5 -13 -7 -3 -14 8 -4 16 -3 20 2 4 7 9 4 12 -5
5 -12 0 -16 -18 -16 -13 0 -27 5 -30 10 -4 6 -11 8 -16 5 -5 -4 -9 -2 -9 4 0
6 -7 8 -15 5 -9 -4 -15 0 -15 10 0 20 -19 21 -26 1 -9 -23 -23 -18 -18 8 l5
22 -10 -22 c-11 -25 -37 -22 -57 6 -10 13 -14 13 -28 2 -13 -11 -17 -11 -22 3
-3 9 -14 16 -24 16 -10 0 -21 8 -23 18 -3 12 -5 9 -6 -8 -1 -22 -3 -23 -12 -7
-5 9 -17 17 -26 17 -10 0 -13 6 -9 16 4 12 1 14 -14 9 -16 -5 -20 -2 -20 14 0
13 -6 21 -16 21 -10 0 -14 -6 -10 -15 3 -8 3 -15 1 -15 -9 0 -43 38 -39 43 2
2 0 15 -5 28 l-9 24 -10 -25 c-10 -23 -12 -23 -16 -2 0 5 -9 16 -18 26 -17 16
-22 30 -19 49 1 10 -16 9 -21 -1 -1 -5 -14 -5 -28 -1 -16 4 -19 7 -7 8 9 1 17
5 17 11 0 5 -6 7 -14 4 -8 -3 -25 5 -37 17 l-22 22 38 -6 c34 -6 36 -5 19 8
-11 8 -26 15 -34 16 -8 0 -2 5 14 10 20 5 34 4 43 -3 9 -7 13 -7 13 0 0 6 21
13 48 15 55 4 -139 3 -214 -1z"/>
<path d="M8443 1084 c-7 -7 -13 -16 -13 -20 0 -4 -8 -13 -17 -20 -17 -13 -17
-13 0 -14 15 0 16 -2 5 -14 -14 -14 -42 -10 -32 5 3 5 -2 9 -10 9 -11 0 -16 9
-16 28 -1 24 -2 25 -11 9 -6 -10 -9 -27 -6 -38 7 -27 -10 -24 -19 4 -7 21 -8
20 -14 -8 -7 -38 -40 -45 -69 -14 l-20 22 4 -32 c4 -28 2 -31 -23 -31 -16 0
-32 -4 -37 -9 -6 -5 -21 -11 -35 -13 -16 -2 -24 -9 -22 -19 2 -16 -23 -19 -46
-5 -15 9 -15 1 0 -24 18 -29 -1 -39 -23 -11 -19 23 -25 17 -13 -13 11 -29 89
-15 89 16 0 7 8 14 18 16 9 2 17 -1 17 -7 0 -6 -4 -11 -10 -11 -5 0 -10 -5
-10 -11 0 -8 54 -10 193 -5 195 7 396 16 432 21 11 1 46 3 78 4 32 0 57 6 57
12 0 5 -5 7 -12 3 -7 -4 -8 -3 -4 4 10 17 24 15 29 -5 4 -17 5 -17 6 0 1 20
12 22 30 5 10 -11 11 -10 6 3 -8 20 -50 30 -64 16 -8 -8 -15 -7 -23 1 -7 7
-29 12 -50 12 -35 0 -37 2 -35 30 1 19 8 30 17 30 10 0 11 3 3 11 -9 9 -18 8
-37 -5 -33 -21 -66 -21 -66 0 0 9 -8 23 -17 30 -16 12 -15 13 14 14 26 0 31
-3 26 -16 -5 -14 -3 -14 15 -3 27 17 11 29 -38 29 -47 -1 -74 -22 -66 -52 3
-13 -4 -3 -16 22 l-23 45 -4 -30 c-4 -29 -4 -30 -10 -5 -9 34 -38 37 -62 6
-19 -24 -48 -34 -61 -20 -8 8 3 44 13 44 14 0 11 -28 -3 -33 -10 -4 -10 -6 0
-6 9 -1 32 36 32 53 0 9 -37 1 -47 -10z"/>
<path d="M2726 1034 c-4 -9 -2 -44 4 -76 6 -33 10 -72 9 -87 -1 -14 1 -33 4
-41 3 -8 6 -26 6 -40 0 -56 14 -186 22 -202 6 -11 5 -18 -4 -21 -9 -3 -9 -7
-1 -18 10 -13 23 -93 27 -174 1 -16 6 -36 10 -42 6 -9 3 -11 -10 -7 -17 5 -17
5 0 -9 21 -17 36 -127 17 -127 -12 0 -2 -53 12 -58 4 -2 8 -12 8 -23 0 -10 4
-19 10 -19 5 0 8 18 5 42 -11 93 -36 303 -59 498 -14 113 -30 252 -37 310 -6
58 -13 106 -14 108 -1 2 -5 -5 -9 -14z"/>
<path d="M24074 996 c-11 -8 -31 -16 -44 -18 -23 -4 -24 -5 -5 -12 95 -38 121
-55 180 -115 11 -12 32 -33 48 -48 15 -14 27 -36 27 -48 0 -13 7 -28 15 -35
11 -9 13 -23 9 -54 -8 -48 -53 -136 -71 -136 -13 0 -53 -35 -53 -46 0 -3 16
-3 35 0 38 7 45 -3 20 -28 -8 -8 -15 -19 -15 -25 0 -18 -38 -12 -43 7 -3 11
-5 8 -6 -9 -1 -34 -61 -67 -95 -51 -13 6 -29 6 -43 -1 -16 -7 -31 -6 -54 6
-22 10 -40 12 -54 7 -15 -6 -32 -4 -49 5 -17 9 -28 10 -32 3 -4 -5 -20 -7 -38
-4 -17 4 -42 6 -56 6 -24 0 -105 16 -195 39 -50 13 -85 14 -85 2 0 -9 42 -18
115 -25 22 -2 41 -9 43 -15 2 -6 17 -11 33 -11 16 0 46 -7 68 -16 31 -12 44
-13 61 -4 12 6 29 8 38 5 9 -4 51 -11 92 -16 209 -24 270 -19 270 20 0 13 14
25 45 38 34 14 43 22 39 35 -6 20 15 89 30 100 6 4 11 25 11 47 1 22 8 48 17
58 15 17 14 21 -7 52 -13 18 -21 39 -19 45 3 7 -4 21 -16 31 -11 10 -20 29
-20 42 0 12 -6 23 -13 23 -7 0 -28 16 -47 35 -19 19 -39 35 -44 35 -20 1 -56
38 -56 59 0 27 -13 33 -36 17z"/>
<path d="M23578 542 c-16 -2 -28 -7 -28 -12 0 -12 26 -19 50 -13 11 3 39 -2
60 -12 21 -10 46 -15 55 -11 23 8 85 -20 85 -38 0 -9 4 -16 9 -16 5 0 8 8 7
18 -1 21 38 28 77 13 19 -8 25 -15 21 -28 -4 -12 -1 -10 11 5 15 20 23 23 49
17 64 -15 150 -12 174 6 21 16 18 17 -90 18 -135 2 -220 10 -232 22 -5 4 -29
6 -52 2 -27 -3 -49 -1 -58 6 -7 6 -27 11 -42 9 -16 -1 -38 3 -49 8 -11 5 -32
8 -47 6z"/>
</g>
</svg>
